<?xml version="1.0" encoding="utf-8"?>
<!-- Generator: Adobe Illustrator 17.0.0, SVG Export Plug-In . SVG Version: 6.00 Build 0)  -->
<!DOCTYPE svg PUBLIC "-//W3C//DTD SVG 1.1//EN" "http://www.w3.org/Graphics/SVG/1.1/DTD/svg11.dtd">
<svg version="1.1" id="Layer_1" xmlns="http://www.w3.org/2000/svg" xmlns:xlink="http://www.w3.org/1999/xlink" x="0px" y="0px"
	 width="252px" height="252px" viewBox="0 0 252 252" enable-background="new 0 0 252 252" xml:space="preserve">
<g>
	<path fill="#EB2329" d="M122.991,102.154l0.453,0.583h5.3l0.723-0.58c-1.056,0.137-2.13,0.216-3.223,0.216
		C125.141,102.373,124.057,102.293,122.991,102.154z"/>
	<path fill="#EB2329" d="M157.508,82.163l6.243,1.242c0.626-3.943,0.627-7.921,0.003-11.863l-6.242,1.242
		c-0.393,0.077-0.795-0.003-1.127-0.224c-0.33-0.221-0.56-0.564-0.638-0.955c-0.771-3.885-2.283-7.532-4.494-10.841
		c-0.46-0.689-0.275-1.62,0.414-2.081l5.292-3.537c-2.35-3.238-5.162-6.052-8.386-8.392l-3.537,5.294
		c-0.461,0.689-1.393,0.873-2.08,0.414c-3.3-2.203-6.948-3.713-10.845-4.489c-0.813-0.162-1.34-0.951-1.178-1.764l1.241-6.243
		c-3.922-0.62-7.943-0.621-11.863-0.003l1.242,6.243c0.078,0.39-0.003,0.795-0.224,1.126c-0.221,0.331-0.565,0.561-0.955,0.638
		c-3.884,0.771-7.532,2.283-10.841,4.495c-0.332,0.221-0.737,0.301-1.126,0.224c-0.39-0.078-0.734-0.307-0.955-0.638l-3.537-5.293
		c-3.237,2.35-6.051,5.162-8.392,8.386l5.294,3.537c0.688,0.46,0.874,1.391,0.414,2.08c-2.204,3.301-3.714,6.95-4.488,10.845
		c-0.078,0.39-0.307,0.734-0.638,0.955c-0.332,0.221-0.737,0.302-1.126,0.224l-6.244-1.242c-0.626,3.944-0.627,7.922-0.003,11.863
		l6.244-1.242c0.39-0.079,0.795,0.003,1.126,0.224c0.331,0.221,0.561,0.565,0.638,0.955c0.711,3.581,2.059,6.957,3.997,10.057
		l0.506-0.085l6.514,0.819c-3.984-4.416-6.413-10.259-6.413-16.661c0-13.73,11.17-24.9,24.9-24.9s24.9,11.17,24.9,24.9
		c0,5.097-1.542,9.84-4.18,13.791h6.006c1.287-2.491,2.221-5.142,2.774-7.923C155.905,82.528,156.693,82.004,157.508,82.163z"/>
	<path fill="#231F20" d="M166.434,69.479c-0.078-0.39-0.308-0.734-0.638-0.955c-0.332-0.221-0.733-0.303-1.127-0.224l-6.305,1.254
		c-0.797-3.244-2.075-6.326-3.812-9.193l5.344-3.571c0.689-0.46,0.874-1.392,0.414-2.081c-3.013-4.508-6.814-8.313-11.302-11.308
		c-0.688-0.458-1.619-0.274-2.08,0.414l-3.572,5.346c-2.862-1.731-5.944-3.007-9.195-3.806l1.254-6.305
		c0.162-0.813-0.365-1.602-1.178-1.764c-5.253-1.045-10.737-1.047-15.987-0.004c-0.391,0.078-0.734,0.307-0.955,0.638
		c-0.221,0.331-0.302,0.736-0.224,1.126l1.254,6.305c-3.244,0.797-6.325,2.075-9.193,3.812l-3.571-5.345
		c-0.221-0.331-0.564-0.56-0.955-0.638c-0.39-0.08-0.795,0.003-1.126,0.224c-4.507,3.012-8.312,6.814-11.309,11.302
		c-0.46,0.689-0.274,1.62,0.414,2.08l5.346,3.572c-1.731,2.863-3.007,5.945-3.806,9.195l-6.305-1.254
		c-0.391-0.08-0.795,0.003-1.126,0.224c-0.331,0.221-0.56,0.564-0.638,0.955c-1.055,5.306-1.057,10.685-0.004,15.987
		c0.077,0.39,0.307,0.734,0.638,0.955c0.331,0.221,0.735,0.303,1.126,0.224l6.306-1.254c0.738,3,1.904,5.854,3.447,8.537
		l1.563-0.261l1.604-0.268c-1.938-3.099-3.286-6.476-3.997-10.057c-0.077-0.39-0.307-0.734-0.638-0.955
		c-0.331-0.221-0.736-0.303-1.126-0.224l-6.244,1.242c-0.624-3.941-0.623-7.919,0.003-11.863l6.244,1.242
		c0.389,0.078,0.794-0.003,1.126-0.224c0.331-0.221,0.56-0.564,0.638-0.955c0.774-3.895,2.285-7.544,4.488-10.845
		c0.46-0.689,0.274-1.62-0.414-2.08l-5.294-3.537c2.341-3.224,5.155-6.036,8.392-8.386l3.537,5.293
		c0.221,0.331,0.564,0.56,0.955,0.638c0.389,0.077,0.794-0.003,1.126-0.224c3.31-2.211,6.957-3.724,10.841-4.495
		c0.39-0.077,0.734-0.307,0.955-0.638c0.221-0.331,0.302-0.736,0.224-1.126l-1.242-6.243c3.919-0.617,7.941-0.617,11.863,0.003
		l-1.241,6.243c-0.162,0.813,0.365,1.602,1.178,1.764c3.896,0.775,7.545,2.286,10.845,4.489c0.688,0.458,1.619,0.275,2.08-0.414
		l3.537-5.294c3.224,2.34,6.036,5.154,8.386,8.392l-5.292,3.537c-0.689,0.46-0.874,1.392-0.414,2.081
		c2.211,3.309,3.723,6.956,4.494,10.841c0.078,0.391,0.308,0.734,0.638,0.955c0.332,0.221,0.734,0.301,1.127,0.224l6.242-1.242
		c0.624,3.942,0.623,7.92-0.003,11.863l-6.243-1.242c-0.814-0.159-1.603,0.366-1.764,1.178c-0.553,2.78-1.488,5.431-2.774,7.923
		h1.676h1.614h0.029c0.866-1.887,1.573-3.842,2.072-5.873l6.305,1.254c0.816,0.162,1.603-0.365,1.764-1.179
		C167.484,80.162,167.485,74.783,166.434,69.479z"/>
	<path fill="#231F20" d="M126.244,100.873c-1.575,0-3.112-0.158-4.599-0.455l1.347,1.735c1.065,0.14,2.15,0.219,3.253,0.219
		c1.093,0,2.167-0.078,3.223-0.216l2.48-1.987C130.121,100.627,128.211,100.873,126.244,100.873z"/>
	<path fill="#231F20" d="M126.244,64.131c-7.356,0-13.342,5.985-13.342,13.342s5.985,13.342,13.342,13.342
		c7.356,0,13.341-5.985,13.341-13.342S133.6,64.131,126.244,64.131z M126.244,87.815c-5.703,0-10.342-4.639-10.342-10.342
		s4.639-10.342,10.342-10.342s10.341,4.639,10.341,10.342S131.946,87.815,126.244,87.815z"/>
	<path fill="#EB2329" d="M126.244,55.573c-12.076,0-21.9,9.824-21.9,21.9c0,7.139,3.435,13.49,8.738,17.491
		c2.099,1.583,4.492,2.794,7.079,3.543c1.933,0.56,3.972,0.866,6.083,0.866c3.316,0,6.46-0.745,9.279-2.069
		c1.726-0.811,3.33-1.839,4.775-3.052c4.792-4.021,7.846-10.049,7.846-16.779C148.144,65.397,138.319,55.573,126.244,55.573z
		 M126.244,90.815c-7.356,0-13.342-5.985-13.342-13.342s5.985-13.342,13.342-13.342c7.356,0,13.341,5.985,13.341,13.342
		S133.6,90.815,126.244,90.815z"/>
	<path fill="#231F20" d="M126.244,52.573c-13.73,0-24.9,11.17-24.9,24.9c0,6.402,2.43,12.245,6.413,16.661l2.373,0.299
		c3.139,2.983,6.057,3.13,11.514,5.986c1.344,0.703,3.025,0.455,4.599,0.455c1.968,0,3.978,0.049,5.703-0.703
		c4.81-2.098,7.178-4.378,12.228-7.668l2.745-1.239h0.043c2.638-3.951,4.18-8.693,4.18-13.791
		C151.144,63.743,139.974,52.573,126.244,52.573z M140.298,94.252c-1.445,1.213-3.049,2.241-4.775,3.052
		c-2.819,1.325-5.963,2.069-9.279,2.069c-2.111,0-4.15-0.306-6.083-0.866c-2.587-0.75-4.98-1.96-7.079-3.543
		c-5.303-4-8.738-10.352-8.738-17.491c0-12.076,9.824-21.9,21.9-21.9s21.9,9.824,21.9,21.9
		C148.144,84.203,145.09,90.231,140.298,94.252z"/>
</g>
<g>
	<path fill="#EB2329" d="M126,30c52.935,0,96,43.065,96,96s-43.065,96-96,96s-96-43.065-96-96S73.065,30,126,30 M126,18
		C66.353,18,18,66.353,18,126s48.353,108,108,108s108-48.353,108-108S185.647,18,126,18L126,18z"/>
</g>
<g display="none">
	<path display="inline" fill-rule="evenodd" clip-rule="evenodd" fill="#231F20" d="M89.79,45.522
		c-2.436,1.267-2.741,1.164-6.099,3.557c-1.494,1.065-4.1,3.898-4.265,4.131c-1.641,2.315-3.96,4.703-11.29,18.29
		c-2.65,4.77-5.435,9.231-8.818,13.282c-1.899,2.276-3.939,4.432-5.908,6.648c-0.899,1.013-0.918,1.992-0.079,2.736
		c0.787,0.698,1.717,0.588,2.635-0.366c1.282-1.333,2.575-2.66,3.794-4.048c5.107-5.808,9.17-12.315,12.831-19.103
		c2.604-4.827,4.957-9.822,8.566-14.035c5.453-6.364,12.077-10.288,20.764-9.847c0.18-1.33,0.357-2.66,0.535-3.99
		C95.387,43.051,91.31,44.731,89.79,45.522z"/>
	<path display="inline" fill-rule="evenodd" clip-rule="evenodd" fill="#231F20" d="M148.809,91.064
		c-0.238-1.181-0.476-2.361-0.715-3.542c3.045-0.051,6.1-0.093,8.945-1.369c2.07-0.926,2.411-2.94,0.692-4.421
		c-0.688-0.593-1.658-0.938-2.555-1.187c-0.761-0.21-1.604-0.126-2.411-0.158c-3.195-0.123-6.391-0.23-9.587-0.361
		c-1.499-0.061-2.197-0.676-2.151-1.832c0.044-1.097,0.918-1.746,2.301-1.679c4.345,0.211,8.69,0.427,13.034,0.648
		c1.488,0.075,3.531-1.522,3.826-3.008c0.368-1.86-0.438-3.469-2.283-3.956c-1.429-0.379-2.954-0.481-4.444-0.533
		c-4.041-0.14-8.087-0.19-12.16-0.277c0.006-0.819,0.012-1.949,0.019-3.029c4.927-0.037,9.851-0.028,14.773-0.132
		c1.473-0.032,2.993-0.193,4.392-0.623c1.416-0.434,1.988-1.765,1.879-3.345c-0.098-1.398-1.06-2.119-2.233-2.285
		c-2.081-0.296-4.199-0.467-6.301-0.466c-4.346,0.002-8.694,0.152-13.117,0.242c0.03-1.218,0.05-2.063,0.086-3.65
		c0.596,0.037,0.761,0.075,1.171,0.069c4.74-0.065,9.481-0.098,14.213-0.302c1.46-0.063,2.966-0.455,4.33-1.001
		c1.729-0.688,2.515-2.188,2.477-4.062c-0.036-1.778-1.226-2.651-2.683-3.248c-2.583-1.06-5.322-1.187-8.059-1.173
		c-10.751,0.056-21.501,0.155-32.251,0.238c-0.578,0.004-1.155,0.004-1.732,0.007c1.21-1.851,1.147-2.506-0.324-3.449
		c7.182-0.072,14.366-0.143,21.548-0.217c4.188-0.042,8.376-0.09,12.564-0.136c0.063,0.031,0.128,0.034,0.196,0.008l-0.019-0.012
		c1.87,0.131,3.74,0.262,5.612,0.392c1.834,0.646,3.84,1.009,5.469,1.997c4.018,2.437,4.312,8.122,0.78,11.408
		c-0.275,0.256-0.563,0.496-0.857,0.755c3.894,2.756,3.468,8.843-0.973,11.424c2.294,3.454,2.219,7.444-1.744,10.519
		c0.315,0.496,0.668,0.982,0.949,1.506c1.708,3.177,0.781,6.427-2.361,8.184c-2.878,1.61-6.077,1.796-9.266,2
		C149.496,91.03,149.153,91.045,148.809,91.064z"/>
	<path display="inline" fill-rule="evenodd" clip-rule="evenodd" fill="#EB2329" d="M117.942,43.18
		c1.472,0.943,1.534,1.599,0.324,3.449c-1.518,2.056-1.615,4.498-1.917,6.901c-0.324,2.587,0.286,4.626,2.454,6.358
		c1.872,1.495,3.503,3.352,5,5.239c1.864,2.351,2.332,4.99,0.622,7.708c-1.696,2.695-4.781,4.009-7.997,3.381
		c-2.923-0.57-5.224-2.286-7.524-4.059c-6.662-5.135-7.753-12.28-7.355-19.986c0.094-1.802,0.247-3.602,0.372-5.403
		c0.18-1.33,0.357-2.66,0.535-3.99c0.111-0.669,0.222-1.338,0.335-2.007c0.234-1.422,0.469-2.842,0.703-4.264
		c0.17-1.021,0.34-2.041,0.511-3.062c0.431-1.267,0.86-2.533,1.291-3.8c0.858-1.551,1.717-3.102,2.575-4.653
		c0.658-0.974,1.317-1.951,1.976-2.927c1.617-1.946,3.235-3.893,4.851-5.839c0.942-0.951,1.885-1.902,2.827-2.852
		c0.585-0.497,1.162-1.004,1.756-1.489c2.913-2.384,6.249-4,9.728-5.359c1.389-0.402,2.78-0.802,4.17-1.204
		c4.453-0.203,7.902-2.587,11.148-5.286c2.9-2.409,5.668-4.979,8.492-7.481c0.81-0.717,1.782-0.74,2.481-0.053
		c0.69,0.679,0.744,1.74-0.021,2.477c-4.735,4.577-9.514,9.117-15.449,12.158c-1.176,0.604-2.508,0.999-3.814,1.237
		c-5.389,0.972-10.448,2.768-14.644,6.344c-2.42,2.064-4.594,4.45-6.674,6.867c-2.536,2.946-4.773,6.144-6.231,9.784
		c-0.596,1.486-1.074,3.061-1.314,4.64c-0.748,4.948-1.481,9.904-1.97,14.881c-0.254,2.588-0.056,5.231,0.071,7.844
		c0.23,4.738,2.696,8.277,6.355,11.024c1.517,1.138,3.224,2.073,4.956,2.852c1.353,0.61,2.801,0.396,3.994-0.663
		c1.632-1.452,1.928-2.833,0.549-4.535c-1.518-1.875-3.305-3.533-4.986-5.277c-0.319-0.332-0.695-0.61-1.032-0.926
		c-1.434-1.347-2.27-2.907-2.254-4.975c0.025-3.255,0.146-6.477,1.424-9.525c0.368-0.878,0.889-1.699,1.405-2.503
		C116.187,43.395,116.951,43.006,117.942,43.18z"/>
	<path display="inline" fill-rule="evenodd" clip-rule="evenodd" fill="#EB2329" d="M157.842,43.214
		c-1.871-0.13-3.741-0.261-5.612-0.392c1.706-1.242,3.543-2.345,5.081-3.768c1.481-1.371,2.625-3.1,3.966-4.628
		c3.198-3.648,6.404-7.292,9.652-10.896c1.935-2.145,3.95-4.217,5.946-6.308c0.998-1.046,1.888-1.174,2.699-0.438
		c0.836,0.756,0.765,1.8-0.192,2.834c-4.212,4.552-8.472,9.062-12.62,13.674c-1.848,2.054-3.405,4.369-5.224,6.453
		C160.433,41.012,159.083,42.065,157.842,43.214z"/>
	<path display="inline" fill-rule="evenodd" clip-rule="evenodd" fill="#231F20" d="M106.249,103.15
		c0.314,1.178,0.627,2.356,0.943,3.534c-2.114-0.074-4.238-0.309-6.342-0.19c-5.124,0.289-9.651,2.287-13.509,5.576
		c-2.357,2.008-4.39,4.4-6.53,6.654c-0.731,0.771-1.676,1.006-2.45,0.44c-0.836-0.612-1.094-1.548-0.366-2.411
		c1.809-2.142,3.596-4.336,5.655-6.223c4.251-3.893,9.203-6.597,14.998-7.305C101.147,102.92,103.713,103.158,106.249,103.15z"/>
	<path display="inline" fill-rule="evenodd" clip-rule="evenodd" fill="#EB2329" d="M148.809,91.064
		c-0.034,2.797,0.128,5.615-0.179,8.382c-0.179,1.61-0.865,3.297-1.757,4.668c-1.743,2.677-5.118,2.768-7.317,0.423
		c-0.234-0.249-0.452-0.511-0.788-0.893c-0.663,2.627-1.547,5.029-4.173,6.075c-2.653,1.057-4.962,0.305-6.862-1.744
		c-4.578,4.366-6.882,4.4-10.972,0.149c-0.151,0.151-0.318,0.287-0.448,0.452c-2.407,3.071-6.389,2.796-8.399-0.583
		c-0.254-0.428-0.482-0.873-0.721-1.307c-0.315-1.178-0.614-1.668-0.943-3.534c-0.063-3.762-0.223-7.527-0.137-11.288
		c0.028-1.25,0.525-2.57,1.103-3.709c1.175-2.321,4.079-3.089,6.363-1.832c0.468,0.256,0.892,0.593,1.466,0.982
		c0.736-2.292,1.622-4.518,4.031-5.519c2.353-0.978,4.59-0.635,6.709,0.913c1.344-2.715,3.348-4.297,6.514-3.81
		c3.031,0.466,4.566,2.586,5.675,5.29c0.489-0.537,0.876-1.098,1.388-1.502c2.533-1.997,5.585-1.385,7.241,1.492
		c0.607,1.055,1.001,2.233,1.492,3.354C148.333,88.702,148.571,89.883,148.809,91.064z M130.243,105.328
		c1.681,1.81,3.446,1.609,4.309-0.075c0.393-0.77,0.719-1.666,0.748-2.516c0.138-4.145,0.322-8.3,0.166-12.44
		c-0.077-2.02-0.696-4.072-1.373-6.003c-0.536-1.524-1.853-2.154-3.174-1.954c-1.369,0.208-1.893,1.328-2.123,2.448
		c-0.369,1.798-0.634,3.636-0.729,5.467c-0.215,4.16-0.113,8.316,1.05,12.358C129.44,103.735,130.013,104.786,130.243,105.328z
		 M120.286,107.034c1.108,0.862,2.333,0.958,3.383,0.095c1.426-1.17,2.076-2.827,1.734-4.528c-0.892-4.421-0.939-8.861-0.854-13.333
		c0.019-1.036-0.242-2.157-0.67-3.104c-0.832-1.845-3.445-1.928-4.497-0.182c-0.426,0.711-0.771,1.532-0.911,2.345
		c-0.925,5.334-0.845,10.652,0.576,15.898C119.312,105.202,119.867,106.1,120.286,107.034z M141.79,101.739
		c1.179,1.193,1.877,1.16,2.505,0.079c0.36-0.62,0.714-1.33,0.768-2.022c0.189-2.442,0.513-4.921,0.275-7.335
		c-0.214-2.17-0.952-4.33-1.741-6.385c-0.554-1.445-1.791-1.394-2.544-0.023c-0.382,0.694-0.696,1.472-0.826,2.249
		c-0.651,3.886-0.429,7.741,0.682,11.524C141.142,100.618,141.604,101.343,141.79,101.739z M110.945,106.246
		c1.177,1.238,2.107,1.169,2.668,0.082c0.326-0.634,0.577-1.378,0.598-2.08c0.079-2.727,0.17-5.462,0.021-8.182
		c-0.088-1.588-0.524-3.183-0.989-4.717c-0.303-1.001-0.803-2.194-2.141-2.054c-1.273,0.132-1.337,1.383-1.457,2.331
		c-0.512,4.032-0.491,8.067,0.375,12.055C110.244,104.709,110.736,105.677,110.945,106.246z"/>
</g>
<g display="none">
	<path display="inline" fill-rule="evenodd" clip-rule="evenodd" fill="#231F20" d="M114.184,106.607
		c-2.618-0.827-2.761-1.115-6.828-1.798c-1.809-0.303-5.655-0.143-5.937-0.094c-2.797,0.477-6.125,0.525-20.917,4.95
		c-5.246,1.499-10.37,2.685-15.626,3.157c-2.952,0.266-5.919,0.349-8.878,0.524c-1.352,0.081-2.058,0.759-1.99,1.879
		c0.063,1.05,0.799,1.63,2.123,1.604c1.849-0.037,3.701-0.06,5.546-0.179c7.718-0.496,15.192-2.224,22.581-4.435
		c5.255-1.572,10.45-3.44,15.981-3.867c8.355-0.644,15.815,1.265,21.645,7.72c1.067-0.813,2.133-1.628,3.2-2.443
		C119.889,108.818,115.818,107.123,114.184,106.607z"/>
	<path display="inline" fill-rule="evenodd" clip-rule="evenodd" fill="#231F20" d="M123.714,180.543
		c0.666-1.003,1.333-2.007,1.999-3.01c2.189,2.117,4.379,4.247,7.293,5.358c2.119,0.809,3.783-0.374,3.615-2.636
		c-0.067-0.906-0.509-1.836-0.968-2.646c-0.389-0.687-1.045-1.224-1.594-1.817c-2.173-2.346-4.356-4.682-6.523-7.034
		c-1.016-1.103-1.075-2.031-0.225-2.817c0.807-0.744,1.884-0.585,2.815,0.44c2.924,3.221,5.843,6.447,8.758,9.675
		c0.999,1.105,3.573,1.421,4.832,0.578c1.576-1.055,2.143-2.762,1.183-4.411c-0.743-1.278-1.749-2.429-2.766-3.519
		c-2.758-2.957-5.584-5.853-8.403-8.794c0.583-0.575,1.386-1.369,2.155-2.128c3.51,3.458,6.986,6.946,10.54,10.353
		c1.064,1.019,2.253,1.98,3.546,2.665c1.308,0.694,2.654,0.157,3.694-1.037c0.919-1.058,0.749-2.248,0.037-3.195
		c-1.262-1.681-2.639-3.299-4.126-4.785c-3.075-3.072-6.255-6.04-9.446-9.104c0.882-0.84,1.494-1.424,2.642-2.52
		c0.395,0.447,0.485,0.591,0.779,0.877c3.397,3.305,6.773,6.634,10.264,9.836c1.077,0.987,2.419,1.776,3.769,2.354
		c1.709,0.736,3.325,0.231,4.624-1.121c1.231-1.283,1.008-2.742,0.4-4.194c-1.077-2.576-2.924-4.603-4.869-6.528
		c-7.642-7.562-15.313-15.094-22.973-22.637c-0.412-0.406-0.82-0.813-1.23-1.219c2.164-0.453,2.583-0.961,2.21-2.668
		c5.13,5.028,10.259,10.057,15.39,15.083c2.992,2.932,5.987,5.859,8.98,8.788c0.022,0.066,0.066,0.115,0.133,0.144l-0.004-0.022
		c1.23,1.415,2.459,2.83,3.691,4.245c0.84,1.753,2.002,3.429,2.455,5.279c1.118,4.564-2.694,8.792-7.515,8.619
		c-0.375-0.013-0.749-0.047-1.14-0.072c0.805,4.703-3.801,8.705-8.766,7.39c-0.821,4.064-3.695,6.833-8.672,6.205
		c-0.128,0.574-0.222,1.167-0.394,1.736c-1.039,3.454-3.992,5.097-7.456,4.118c-3.174-0.896-5.567-3.027-7.966-5.138
		C124.224,181.005,123.97,180.772,123.714,180.543z"/>
	<path display="inline" fill-rule="evenodd" clip-rule="evenodd" fill="#231F20" d="M85.073,158.994
		c-0.611,1.055-1.222,2.11-1.833,3.166c-1.443-1.547-2.778-3.215-4.35-4.619c-3.828-3.418-8.442-5.207-13.495-5.61
		c-3.086-0.247-6.215,0.007-9.322,0.088c-1.062,0.028-1.897-0.474-2.044-1.421c-0.159-1.024,0.321-1.868,1.446-1.964
		c2.793-0.235,5.609-0.524,8.399-0.402c5.759,0.253,11.172,1.843,15.771,5.44C81.628,155.224,83.274,157.207,85.073,158.994z"/>
</g>
<path display="none" fill="#231F20" d="M-41.477,27.5h7.2c0-4.881-0.976-9.533-2.737-13.778l-6.653,2.756
	c-1.46-3.52-3.593-6.69-6.246-9.342l5.091-5.091c-3.316-3.316-7.278-5.983-11.678-7.808l-2.756,6.653
	C-62.651-0.519-66.372-1.3-70.277-1.3v-7.2c-4.881,0-9.533,0.976-13.778,2.737l2.756,6.653c-3.52,1.46-6.689,3.593-9.342,6.246
	l-5.091-5.091c-3.316,3.316-5.983,7.278-7.808,11.678l6.653,2.756c-1.408,3.396-2.189,7.117-2.189,11.023h-7.2
	c0,4.881,0.976,9.533,2.737,13.778l6.653-2.756c1.46,3.52,3.594,6.689,6.246,9.342l-5.091,5.091
	c3.316,3.316,7.278,5.983,11.678,7.808l2.756-6.653c3.396,1.408,7.117,2.189,11.023,2.189v7.2c4.881,0,9.533-0.976,13.778-2.737
	l-2.756-6.653c3.52-1.46,6.69-3.594,9.342-6.246l5.091,5.091c3.316-3.316,5.983-7.278,7.808-11.678l-6.653-2.756
	C-42.258,35.127-41.477,31.405-41.477,27.5z"/>
<g display="none">
	<path display="inline" fill-rule="evenodd" clip-rule="evenodd" fill="#EB2329" d="M163.936,164.095
		c-1.231-1.415-2.461-2.83-3.691-4.245c2.084,0.328,4.163,0.847,6.257,0.928c2.017,0.078,4.048-0.335,6.077-0.468
		c4.841-0.318,9.685-0.628,14.53-0.88c2.885-0.149,5.775-0.189,8.664-0.256c1.445-0.034,2.165,0.505,2.218,1.599
		c0.056,1.125-0.732,1.814-2.14,1.868c-6.197,0.24-12.399,0.418-18.593,0.746c-2.76,0.146-5.497,0.681-8.257,0.869
		C167.326,164.371,165.627,164.16,163.936,164.095z"/>
	<g display="inline">
		<line fill="none" stroke="#231F20" stroke-width="3" stroke-miterlimit="10" x1="83.667" y1="115.628" x2="89.727" y2="164.139"/>
		<line fill="none" stroke="#231F20" stroke-width="3" stroke-miterlimit="10" x1="119.912" y1="120.002" x2="98" y2="160.605"/>
		<line fill="none" stroke="#231F20" stroke-width="3" stroke-miterlimit="10" x1="91.123" y1="164.971" x2="53.513" y2="162.971"/>
		<g>
			<g>
				<polyline fill="#FFFFFF" stroke="#231F20" stroke-width="3" stroke-miterlimit="10" points="138.262,158.729 157.168,177.635 
					159.086,179.553 168.543,170.095 133.719,135.271 				"/>
				<polyline fill="#FFFFFF" stroke="#231F20" stroke-width="3" stroke-miterlimit="10" points="130.749,166.242 148.064,183.557 
					149.655,185.148 157.168,177.635 138.262,158.729 				"/>
				<polyline fill="#FFFFFF" stroke="#231F20" stroke-width="3" stroke-miterlimit="10" points="123.2,173.79 139.197,189.787 
					140.516,191.106 148.064,183.557 130.749,166.242 				"/>
				<polyline fill="#FFFFFF" stroke="#231F20" stroke-width="3" stroke-miterlimit="10" points="122.013,188.978 131.01,197.975 
					139.197,189.787 123.2,173.79 				"/>
			</g>
			
				<line fill="none" stroke="#231F20" stroke-width="3" stroke-miterlimit="10" x1="148.064" y1="149.616" x2="119.02" y2="178.661"/>
		</g>
		<circle fill="#231F20" cx="112.41" cy="121.423" r="1.743"/>
		<circle fill="#231F20" cx="94.41" cy="156.423" r="1.743"/>
		<polyline fill="none" stroke="#231F20" stroke-width="3" stroke-miterlimit="10" points="125.267,125.358 115.538,115.628 
			83.667,115.628 53.513,121.398 		"/>
		<circle fill="#231F20" cx="89.667" cy="121.398" r="1.743"/>
	</g>
	<g display="inline">
		
			<path fill="#EB2329" stroke="#231F20" stroke-width="3" stroke-linecap="round" stroke-linejoin="round" stroke-miterlimit="10" d="
			M152.256,43.929l6.564-4.386c-2.974-4.45-6.697-8.097-10.888-10.894l-4.386,6.565c-3.475-2.32-7.351-3.91-11.385-4.712l1.54-7.743
			c-5.043-1.003-10.28-1.021-15.402-0.004l1.54,7.744c-3.954,0.785-7.822,2.34-11.382,4.719l-4.386-6.564
			c-4.45,2.974-8.097,6.697-10.894,10.888l6.565,4.386c-2.32,3.475-3.91,7.351-4.712,11.385l-7.743-1.54
			c-1.003,5.043-1.021,10.28-0.004,15.402l7.744-1.54c0.785,3.954,2.34,7.822,4.719,11.382l-6.564,4.386
			c2.974,4.45,6.697,8.097,10.888,10.894l4.386-6.565c3.475,2.32,7.351,3.91,11.385,4.712l-1.54,7.743
			c5.043,1.003,10.28,1.021,15.402,0.004l-1.54-7.744c3.954-0.785,7.822-2.34,11.383-4.719l4.386,6.564
			c4.45-2.974,8.097-6.697,10.894-10.888l-6.565-4.386c2.32-3.475,3.91-7.351,4.712-11.385l7.743,1.54
			c1.003-5.043,1.021-10.28,0.004-15.402l-7.744,1.54C156.19,51.358,154.635,47.49,152.256,43.929z"/>
		
			<circle fill="#EB2329" stroke="#231F20" stroke-width="3" stroke-linecap="round" stroke-linejoin="round" stroke-miterlimit="10" cx="126" cy="61.473" r="23.4"/>
		
			<circle fill="#FFFFFF" stroke="#231F20" stroke-width="3" stroke-linecap="round" stroke-linejoin="round" stroke-miterlimit="10" cx="126" cy="61.473" r="11.842"/>
	</g>
	
		<rect x="82.23" y="130.125" display="inline" fill="#FFFFFF" stroke="#FFFFFF" stroke-width="3.5" stroke-linecap="round" stroke-linejoin="round" stroke-miterlimit="10" width="11.436" height="21.5"/>
	<polygon display="inline" fill="#FFFFFF" points="87.923,79.5 101,77.315 112.41,78.75 119.912,82.5 123.2,86.737 128.5,86.737 
		137.842,79.25 146.677,75.264 156.017,75.264 163.5,75.264 160.246,103.25 132.5,112.788 117,112.788 91.123,100.75 	"/>
	<g display="inline">
		<g>
			<polyline fill="none" points="130.019,86.892 130.019,88.57 130.019,92.232 			"/>
			<path fill="none" d="M124.526,84.836c0.442-0.165,0.926-0.267,1.429-0.267c0.525,0,1.019,0.111,1.483,0.287
				c0.369-0.337,1.362-1.22,2.801-2.356h-8.079C123.354,83.511,124.131,84.365,124.526,84.836z"/>
			<polyline fill="none" points="121.882,92.304 121.882,88.57 121.893,88.57 121.893,86.737 			"/>
			<line fill="none" x1="130.019" y1="95.442" x2="130.019" y2="99.883"/>
			<line fill="none" x1="121.893" y1="99.895" x2="121.893" y2="95.523"/>
			<path fill="none" d="M125.955,87.778c-0.442,0-0.801,0.358-0.801,0.792v21.458v10.981v-2.632v5.983
				c0,0.43,0.359,0.792,0.801,0.792c0.442,0,0.804-2.362,0.804-2.792v-3.983v2.014v-8.387v-1.359V88.57
				C126.758,88.136,126.396,87.778,125.955,87.778z"/>
			<path fill="#231F20" d="M126.758,110.645v1.359v8.387v-2.014v5.983c0,0.43-0.362,0.792-0.804,0.792
				c-0.442,0-0.801-0.362-0.801-0.792v-5.983v2.632v-10.981V88.57c0-0.434,0.359-0.792,0.801-0.792c0.442,0,0.804,0.358,0.804,0.792
				V110.645z M121.893,105.409v16.952c0,2.242,1.819,4.062,4.062,4.062c2.245,0,4.065-1.82,4.065-4.062v-6.541v-2.571v-3.981v-1.286
				v-2.628V92.232V88.57v-1.678c0.913-0.802,1.333-0.271,1.333-2.334l-1.114-1.058c-1.439,1.136-2.432,1.019-2.801,1.356
				c-0.464-0.176-0.958-0.287-1.483-0.287c-0.503,0-0.987,0.102-1.429,0.267c-0.395-0.471-1.172-0.325-2.366-1.336l-0.808,1.058
				c-0.113,1.413-0.113,1.413,0.54,2.179v1.832h-0.011v3.734"/>
		</g>
		<path fill="#231F20" stroke="#231F20" stroke-width="0.25" stroke-miterlimit="10" d="M124.932,85.719
			c-0.242-0.382-0.378-0.544-0.624-0.87c-1.268-1.512-6.479-6.991-16.944-8.901c-1.047-0.152-3.46-0.489-4.077-0.543
			c-1.104-0.091-2.248-0.141-3.443-0.141c-2.698,0-5.264,0.417-7.696,1.112c0,0-1.564,0.48-3.219,1.125
			c-11.343,4.63-18.762,14.889-19.161,15.449c-0.05,0.074-0.091,0.154-0.122,0.238c-0.02,0.03-0.04,0.05-0.051,0.08
			c-0.071,0.174-0.102,0.358-0.113,0.543c0,0.018-0.009,0.028-0.009,0.051c0,0.02,0.009,0.04,0.009,0.06
			c0.011,0.183,0.042,0.367,0.113,0.542l0.011,0.02c0.112,0.296,1.113,2.586,3.391,5.458c2.279,2.87,9.936,12.33,28.155,12.281
			c15.025-0.038,18.155-4.745,20.541-6.939c1.902-1.747,3.239-4.082,3.239-4.082V88.558V85.719z M99.844,78.462
			c1.553,0,3.005,0.091,4.374,0.235v0.01l5.151,13.56h-7.225l-2.974-13.795C99.394,78.472,99.62,78.462,99.844,78.462z
			 M95.929,78.798l2.902,13.468h-7.603l-6.836-8.727C87.735,81.354,91.638,79.524,95.929,78.798z M81.767,85.4v0.01l5.375,6.857
			H74.46C76.074,90.429,78.578,87.843,81.767,85.4z M73.796,95.466h13.561l-5.713,8.196C77.586,100.821,75.114,97.562,73.796,95.466
			z M89.362,107.554c-1.948-0.632-3.65-1.385-4.968-2.195l6.897-9.894h6.54l-8.117,12.222
			C89.606,107.65,89.482,107.6,89.362,107.554z M100.584,109.437c-2.617-0.071-5.19-0.398-7.562-0.907l8.681-13.065h7.184
			L100.584,109.437z M121.693,99.809c-0.245,0.511-0.94,1.814-2.357,3.3c-0.018,0.018-0.037,0.036-0.055,0.056
			c-0.202,0.209-0.413,0.422-0.646,0.636c-3.667,3.491-8.825,5.121-14.136,5.538l8.139-13.874h9.055V99.809z M121.693,88.558h-0.012
			v3.709h-8.849l-4.925-12.968c8.401,1.83,12.661,6.121,13.787,7.439V88.558z"/>
		<path fill="#231F20" stroke="#231F20" stroke-width="0.25" stroke-miterlimit="10" d="M190.007,91.145
			c-0.022-0.165-0.062-0.322-0.125-0.469c-0.03-0.061-0.062-0.124-0.102-0.185c-0.031-0.065-0.051-0.126-0.104-0.188
			c-0.442-0.571-9.236-11.583-25.917-15.688c-2.012-0.435-2.829-0.576-4.376-0.875c-1.761-0.28-3.603-0.466-5.519-0.571
			c-1.434-0.03-4.261,0.048-5.1,0.152c-0.814,0.103-2.458,0.409-2.488,0.419c-1.411,0.365-2.811,0.854-4.181,1.435
			c0,0-2.311,1.135-4.726,2.392c-5.108,2.995-9.02,6.487-9.843,7.246c-0.425,0.383-0.403,0.453-0.68,0.866v2.887v12.847
			c0,0,1.544,2.455,3.264,4.116c13.14,12.689,34.79,5.477,40.384,2.603c12.988-6.675,18.925-15.457,19.235-15.894
			c0.051-0.074,0.083-0.167,0.122-0.252c0.03-0.061,0.062-0.103,0.082-0.164c0.051-0.167,0.083-0.332,0.083-0.499V91.25
			c0-0.01,0.01-0.01,0.01-0.021C190.027,91.199,190.007,91.176,190.007,91.145z M184.785,89.836l-9.874,0.437l3.194-5.76
			C181.038,86.456,183.282,88.38,184.785,89.836z M175.323,82.787l-4.232,7.663l-7.034,0.312l7.024-10.128
			C172.593,81.321,174.015,82.039,175.323,82.787z M161.494,77.453c2.328,0.509,4.479,1.165,6.497,1.913l-8.021,11.573l-9.596,0.424
			L161.494,77.453z M148.006,76.663c1.009-0.198,2.018-0.322,2.996-0.322c2.399,0,4.665,0.178,6.837,0.469L146.05,91.562
			l-5.119,0.229L148.006,76.663z M130.11,86.873c1.699-1.508,7.434-6.321,13.674-8.878l-6.528,13.961l-7.146,0.313V86.873z
			 M135.911,106.12c-0.007,0.003-0.016,0.004-0.023,0.006c-0.348-0.218-0.66-0.446-0.971-0.674
			c-0.003-0.002-0.005-0.004-0.008-0.006c-0.262-0.19-0.506-0.379-0.744-0.572c-0.089-0.072-0.175-0.144-0.263-0.218
			c-0.22-0.187-0.44-0.371-0.638-0.555c-0.002-0.004-0.007-0.009-0.01-0.01c-1.928-1.8-2.86-3.491-3.144-4.089v-4.489l9.744-0.434
			l-2.363,0.11l4.268,13.479C139.61,108.052,137.636,107.204,135.911,106.12z M145.441,109.458l-4.569-14.421l-0.002-0.003
			l1.493-0.064l6.268-0.278l-2.696,0.124l8.302,14.777C151.162,109.914,148.196,109.865,145.441,109.458z M166.356,106.481
			c-0.006-0.003-0.013-0.006-0.017-0.008c-2.895,1.205-5.801,2.066-8.648,2.615l-8.097-14.438l8.401-0.372l0.001,0.002l1.975-0.089
			l7.311,11.873C167.088,106.156,166.462,106.433,166.356,106.481z M170.217,104.629l-6.529-10.603l7.6-0.334l5.198,6.955
			C174.612,102.031,172.523,103.392,170.217,104.629z M179.039,98.62l-3.819-5.103l9.577-0.428
			C183.447,94.587,181.511,96.563,179.039,98.62z"/>
	</g>
	<path display="inline" fill="none" stroke="#231F20" stroke-width="3" stroke-miterlimit="10" d="M93.667,162.5"/>
	<path display="inline" fill="none" stroke="#231F20" stroke-width="3" stroke-miterlimit="10" d="M93.667,120.002"/>
	<path display="inline" fill-rule="evenodd" clip-rule="evenodd" fill="#EB2329" d="M123.714,190.543
		c-2.002,1.954-3.88,4.061-6.054,5.8c-1.265,1.012-2.943,1.72-4.543,2.058c-3.125,0.661-5.576-1.662-5.473-4.875
		c0.01-0.341,0.041-0.681,0.074-1.189c-2.326,1.389-4.65,2.462-7.246,1.345c-2.623-1.128-3.724-3.294-3.619-6.085
		c-6.324-0.15-7.978-1.755-7.864-7.654c-0.213,0-0.428-0.022-0.636,0.003c-3.873,0.469-6.495-2.541-5.527-6.352
		c0.123-0.483,0.276-0.958,0.415-1.434c0.61-1.056,0.746-1.614,1.833-3.166c2.615-2.705,5.165-5.481,7.885-8.079
		c0.904-0.864,2.188-1.446,3.402-1.843c2.472-0.81,5.069,0.7,5.795,3.204c0.15,0.512,0.211,1.05,0.342,1.731
		c2.142-1.1,4.342-2.048,6.753-1.052c2.355,0.972,3.694,2.796,4.099,5.39c2.87-0.969,5.406-0.671,7.3,1.912
		c1.814,2.473,1.4,5.057,0.272,7.753c0.726-0.034,1.396-0.157,2.044-0.081c3.203,0.379,4.929,2.97,4.065,6.175
		c-0.316,1.175-0.871,2.287-1.317,3.427C125.047,188.536,124.381,189.539,123.714,190.543z M100.5,187.501
		c-0.092,2.468,1.299,3.575,3.1,2.993c0.822-0.266,1.687-0.669,2.308-1.25c3.029-2.833,6.097-5.641,8.914-8.679
		c1.375-1.483,2.387-3.371,3.274-5.216c0.699-1.457,0.212-2.833-0.863-3.626c-1.115-0.821-2.278-0.4-3.232,0.23
		c-1.532,1.01-3.019,2.123-4.381,3.351c-3.094,2.789-5.96,5.8-7.996,9.481C101.059,185.806,100.72,186.955,100.5,187.501z
		 M92.253,181.667c0.174,1.393,0.972,2.327,2.325,2.46c1.835,0.181,3.467-0.531,4.428-1.976c2.496-3.757,5.601-6.93,8.824-10.032
		c0.746-0.719,1.354-1.696,1.721-2.668c0.716-1.893-1.073-3.8-3.052-3.308c-0.804,0.202-1.628,0.538-2.302,1.013
		c-4.426,3.117-8.13,6.934-10.834,11.649C92.859,179.682,92.617,180.709,92.253,181.667z M111.202,193.129
		c-0.01,1.677,0.507,2.148,1.715,1.827c0.693-0.184,1.445-0.435,1.973-0.887c1.86-1.593,3.842-3.117,5.382-4.992
		c1.383-1.686,2.388-3.735,3.284-5.746c0.63-1.414-0.281-2.252-1.783-1.815c-0.76,0.22-1.533,0.549-2.174,1.006
		c-3.208,2.287-5.778,5.17-7.667,8.632C111.537,191.877,111.351,192.717,111.202,193.129z M86.205,174.505
		c-0.043,1.708,0.663,2.317,1.829,1.945c0.678-0.218,1.383-0.566,1.894-1.047c1.984-1.873,3.982-3.742,5.8-5.771
		c1.061-1.186,1.88-2.621,2.636-4.035c0.494-0.922,0.983-2.12-0.062-2.967c-0.993-0.806-1.923,0.032-2.679,0.618
		c-3.213,2.489-6.051,5.357-8.259,8.789C86.796,172.922,86.459,173.954,86.205,174.505z"/>
	<path display="inline" fill-rule="evenodd" clip-rule="evenodd" fill="#EB2329" d="M135.747,134.857
		c0.374,1.708-0.046,2.215-2.21,2.668c-2.527,0.381-4.323,2.039-6.235,3.524c-2.058,1.6-3.069,3.473-2.76,6.231
		c0.267,2.38,0.107,4.847-0.169,7.24c-0.344,2.98-1.88,5.178-5.01,5.89c-3.105,0.706-6.216-0.546-8.046-3.264
		c-1.664-2.47-2.077-5.31-2.45-8.191c-1.079-8.342,3.201-14.165,8.932-19.333c1.341-1.208,2.721-2.373,4.084-3.557
		c1.067-0.813,2.133-1.628,3.2-2.443c0.552-0.394,1.103-0.789,1.656-1.183c1.171-0.84,2.342-1.678,3.512-2.518
		c0.842-0.602,1.684-1.203,2.527-1.803c1.2-0.591,2.4-1.183,3.6-1.774c1.703-0.49,3.408-0.98,5.112-1.469
		c1.154-0.224,2.311-0.449,3.467-0.672c2.52-0.232,5.04-0.465,7.56-0.699c1.339-0.006,2.678-0.012,4.016-0.018
		c0.765,0.062,1.531,0.112,2.294,0.188c3.746,0.374,7.248,1.59,10.668,3.089c1.267,0.699,2.533,1.399,3.8,2.097
		c3.292,3.005,7.417,3.758,11.62,4.145c3.754,0.347,7.529,0.487,11.295,0.715c1.08,0.066,1.783,0.737,1.791,1.717
		c0.007,0.968-0.704,1.756-1.766,1.737c-6.584-0.112-13.174-0.281-19.521-2.327c-1.259-0.405-2.48-1.066-3.571-1.822
		c-4.498-3.123-9.345-5.431-14.84-5.869c-3.17-0.252-6.395-0.102-9.575,0.137c-3.877,0.29-7.719,0.969-11.324,2.513
		c-1.472,0.63-2.924,1.405-4.21,2.352c-4.027,2.97-8.051,5.956-11.915,9.129c-2.01,1.651-3.739,3.66-5.496,5.597
		c-3.187,3.513-3.947,7.759-3.301,12.288c0.267,1.877,0.814,3.745,1.488,5.521c0.525,1.389,1.701,2.261,3.293,2.355
		c2.181,0.128,3.367-0.64,3.595-2.818c0.252-2.399,0.161-4.835,0.206-7.256c0.009-0.46-0.06-0.922-0.075-1.384
		c-0.061-1.966,0.45-3.661,1.924-5.111c2.319-2.284,4.683-4.476,7.742-5.728c0.881-0.36,1.83-0.572,2.764-0.777
		C134.354,133.769,135.169,134.033,135.747,134.857z"/>
	<g display="inline">
		<path fill="#EB2329" d="M69.092,140.377c0,5.757-2.348,7.924-7.089,7.924H57.6v-15.805h4.403
			C66.744,132.497,69.092,134.643,69.092,140.377z M66.518,140.377c0-4.47-1.31-5.622-4.245-5.622h-2.099v11.288h2.099
			C65.209,146.044,66.518,144.893,66.518,140.377z"/>
		<path fill="#EB2329" d="M82.23,143.855c0,2.777-2.484,4.629-5.554,4.629c-2.461,0-4.786-1.243-5.735-3.41l1.851-1.196
			c0.971,1.603,2.506,2.281,3.883,2.281c1.264,0,2.958-0.519,2.958-2.213c0-1.423-1.242-2.032-3.341-2.778
			c-3.026-1.038-4.696-2.37-4.696-4.582c0-2.506,2.235-4.268,5.125-4.268c2.8,0,4.629,1.58,5.374,3.025l-1.761,1.288
			c-1.129-1.513-2.258-1.987-3.567-1.987c-1.31,0-2.574,0.609-2.574,1.964c0,0.948,0.61,1.558,2.619,2.326
			C79.544,139.994,82.23,140.92,82.23,143.855z"/>
		<path fill="#EB2329" d="M93.246,144.961h-5.893l-0.948,3.341h-2.664l4.719-15.805h3.681l4.719,15.805h-2.664L93.246,144.961z
			 M92.614,142.725l-2.145-7.518H90.13l-2.145,7.518H92.614z"/>
		<path fill="#231F20" d="M169.094,132.497v15.805h-3.207l-5.034-11.695h-0.09v11.695h-2.574v-15.805h3.206l5.035,11.673h0.091
			v-11.673H169.094z"/>
		<path fill="#231F20" d="M181.736,134.823h-3.749v13.479h-2.574v-13.479h-3.792v-2.326h10.115V134.823z"/>
		<path fill="#231F20" d="M192.661,144.441l1.739,1.445c-1.174,1.807-2.71,2.574-4.967,2.574c-3.929,0-6.3-2.461-6.3-8.061
			c0-5.599,2.371-8.06,6.3-8.06c2.258,0,3.793,0.768,4.967,2.551l-1.739,1.467c-0.7-1.219-1.829-1.693-3.229-1.693
			c-2.19,0-3.726,1.49-3.726,5.735c0,4.223,1.536,5.735,3.726,5.735C190.833,146.134,191.961,145.66,192.661,144.441z"/>
	</g>
</g>
<path fill-rule="evenodd" clip-rule="evenodd" fill="#EB2329" d="M164.18,180.095c-1.231-1.415-2.461-2.83-3.691-4.245
	c2.084,0.328,4.163,0.847,6.257,0.928c2.017,0.078,4.048-0.335,6.077-0.468c4.841-0.318,9.685-0.628,14.53-0.88
	c2.885-0.149,5.775-0.189,8.664-0.256c1.445-0.034,2.165,0.505,2.218,1.599c0.056,1.125-0.732,1.814-2.14,1.868
	c-6.197,0.24-12.399,0.418-18.593,0.746c-2.76,0.146-5.497,0.681-8.257,0.869C167.569,180.371,165.87,180.16,164.18,180.095z"/>
<line fill="none" stroke="#231F20" stroke-width="3" stroke-miterlimit="10" x1="120.155" y1="136.002" x2="98.244" y2="176.605"/>
<line fill="none" stroke="#231F20" stroke-width="3" stroke-miterlimit="10" x1="91.366" y1="180.971" x2="53.756" y2="178.971"/>
<g>
	<g>
		<polyline fill="none" stroke="#231F20" stroke-width="3" stroke-miterlimit="10" points="138.505,174.729 157.412,193.635 
			159.329,195.553 168.787,186.095 133.963,151.271 		"/>
		<polyline fill="none" stroke="#231F20" stroke-width="3" stroke-miterlimit="10" points="130.992,182.242 148.308,199.557 
			149.899,201.148 157.412,193.635 138.505,174.729 		"/>
		<polyline fill="none" stroke="#231F20" stroke-width="3" stroke-miterlimit="10" points="123.444,189.79 139.441,205.787 
			140.759,207.106 148.308,199.557 130.992,182.242 		"/>
		<polyline fill="none" stroke="#231F20" stroke-width="3" stroke-miterlimit="10" points="122.257,204.978 131.254,213.975 
			139.441,205.787 123.444,189.79 		"/>
	</g>
	
		<line fill="none" stroke="#231F20" stroke-width="3" stroke-miterlimit="10" x1="148.308" y1="165.616" x2="119.263" y2="194.661"/>
</g>
<circle fill="#231F20" cx="112.654" cy="137.423" r="1.743"/>
<circle fill="#231F20" cx="94.654" cy="172.423" r="1.743"/>
<polyline fill="none" stroke="#231F20" stroke-width="3" stroke-miterlimit="10" points="125.511,141.358 115.782,131.628 
	83.91,131.628 53.756,137.398 "/>
<circle fill="#231F20" cx="89.91" cy="137.398" r="1.743"/>
<g>
	<polygon fill="#231F20" points="85.398,131.443 82.422,131.814 83.991,144.375 87.014,144.375 	"/>
	<polygon fill="#231F20" points="88.482,180.324 91.458,179.953 90.137,169.375 87.114,169.375 	"/>
</g>
<g display="none">
	<g display="inline">
		
			<path fill="#EB2329" stroke="#231F20" stroke-width="3" stroke-linecap="round" stroke-linejoin="round" stroke-miterlimit="10" d="
			M164.958,83.174c1.003-5.043,1.021-10.28,0.004-15.402l-7.744,1.54c-0.785-3.954-2.34-7.822-4.719-11.383l6.564-4.386
			c-2.974-4.45-6.697-8.097-10.888-10.894l-4.386,6.565c-3.475-2.32-7.351-3.91-11.385-4.712l1.54-7.743
			c-5.043-1.003-10.28-1.021-15.402-0.004l1.54,7.744c-3.954,0.785-7.822,2.34-11.383,4.719l-4.386-6.564
			c-4.45,2.974-8.097,6.697-10.894,10.888l6.565,4.386c-2.32,3.475-3.91,7.351-4.712,11.385l-7.743-1.54
			c-1.003,5.043-1.021,10.28-0.004,15.402l7.744-1.54c0.785,3.954,2.34,7.822,4.719,11.383l-6.564,4.386
			c2.974,4.45,6.697,8.097,10.888,10.894l4.386-6.565c3.475,2.32,7.351,3.91,11.385,4.712l-1.54,7.743
			c5.043,1.003,10.28,1.021,15.402,0.004l-1.54-7.744c3.954-0.785,7.822-2.34,11.383-4.719l4.386,6.564
			c4.45-2.974,8.097-6.697,10.894-10.888l-6.565-4.386c2.32-3.475,3.91-7.351,4.712-11.385L164.958,83.174z M126.244,98.873
			c-12.923,0-23.4-10.477-23.4-23.4s10.477-23.4,23.4-23.4s23.4,10.477,23.4,23.4S139.167,98.873,126.244,98.873z"/>
		
			<path fill="#EB2329" stroke="#231F20" stroke-width="3" stroke-linecap="round" stroke-linejoin="round" stroke-miterlimit="10" d="
			M126.244,52.073c-12.923,0-23.4,10.477-23.4,23.4s10.477,23.4,23.4,23.4s23.4-10.477,23.4-23.4S139.167,52.073,126.244,52.073z
			 M126.244,87.315c-6.54,0-11.842-5.302-11.842-11.842c0-6.54,5.302-11.842,11.842-11.842c6.54,0,11.842,5.302,11.842,11.842
			C138.085,82.013,132.784,87.315,126.244,87.315z"/>
		
			<circle fill="none" stroke="#231F20" stroke-width="3" stroke-linecap="round" stroke-linejoin="round" stroke-miterlimit="10" cx="126.244" cy="75.473" r="11.842"/>
	</g>
	<polygon display="inline" fill="#FFFFFF" points="88.167,93.5 101.244,91.315 112.654,92.75 120.155,96.5 123.444,100.737 
		128.744,100.737 138.085,93.25 146.92,89.264 156.26,89.264 163.744,89.264 160.489,117.25 132.744,126.788 117.244,126.788 
		91.366,114.75 	"/>
</g>
<g>
	<g>
		<polyline fill="none" points="130.263,102.892 130.263,104.57 130.263,108.232 		"/>
		<path fill="none" d="M124.77,100.836c0.442-0.165,0.926-0.267,1.429-0.267c0.525,0,1.019,0.111,1.483,0.287
			c0.369-0.337,1.362-1.22,2.801-2.356h-8.079C123.597,99.511,124.375,100.365,124.77,100.836z"/>
		<polyline fill="none" points="122.125,108.304 122.125,104.57 122.136,104.57 122.136,102.737 		"/>
		<line fill="none" x1="130.263" y1="111.442" x2="130.263" y2="115.883"/>
		<line fill="none" x1="122.136" y1="115.895" x2="122.136" y2="111.523"/>
		<path fill="none" d="M126.198,103.778c-0.442,0-0.801,0.358-0.801,0.792v21.458v10.981v-2.632v5.983
			c0,0.43,0.359,0.792,0.801,0.792c0.442,0,0.804-2.362,0.804-2.792v-3.983v2.014v-8.387v-1.359V104.57
			C127.002,104.136,126.64,103.778,126.198,103.778z"/>
		<path fill="#231F20" d="M127.002,126.645v1.359v8.387v-2.014v5.983c0,0.43-0.362,0.792-0.804,0.792
			c-0.442,0-0.801-0.362-0.801-0.792v-5.983v2.632v-10.981V104.57c0-0.434,0.359-0.792,0.801-0.792c0.442,0,0.804,0.358,0.804,0.792
			V126.645z M122.136,121.409v16.952c0,2.242,1.819,4.062,4.062,4.062c2.245,0,4.065-1.82,4.065-4.062v-6.541v-2.571v-3.981v-1.286
			v-2.628v-13.121v-3.662v-1.678c0.913-0.802,1.333-0.271,1.333-2.334l-1.114-1.058c-1.439,1.136-2.432,1.019-2.801,1.356
			c-0.464-0.176-0.958-0.287-1.483-0.287c-0.503,0-0.987,0.102-1.429,0.267c-0.395-0.471-1.172-0.325-2.366-1.336l-0.808,1.058
			c-0.113,1.413-0.113,1.413,0.54,2.179v1.832h-0.011v3.734"/>
	</g>
	<path fill="#231F20" stroke="#231F20" stroke-width="0.25" stroke-miterlimit="10" d="M125.176,101.719
		c-0.242-0.382-0.378-0.544-0.624-0.87c-1.268-1.512-6.479-6.991-16.944-8.901c-1.047-0.152-3.46-0.489-4.077-0.543
		c-1.104-0.091-2.248-0.141-3.443-0.141c-2.698,0-5.264,0.417-7.696,1.112c0,0-1.564,0.48-3.219,1.125
		c-11.343,4.63-18.762,14.889-19.161,15.449c-0.05,0.074-0.091,0.154-0.122,0.238c-0.02,0.03-0.04,0.05-0.051,0.08
		c-0.071,0.174-0.102,0.358-0.113,0.543c0,0.018-0.009,0.028-0.009,0.051c0,0.02,0.009,0.04,0.009,0.06
		c0.011,0.183,0.042,0.367,0.113,0.542l0.011,0.02c0.112,0.296,1.113,2.586,3.391,5.458c2.279,2.87,9.936,12.33,28.155,12.281
		c15.025-0.038,18.155-4.745,20.541-6.939c1.902-1.747,3.239-4.082,3.239-4.082v-12.645V101.719z M100.088,94.462
		c1.553,0,3.005,0.091,4.374,0.235v0.01l5.151,13.56h-7.225l-2.974-13.795C99.637,94.472,99.863,94.462,100.088,94.462z
		 M96.173,94.798l2.902,13.468h-7.603l-6.836-8.727C87.978,97.354,91.881,95.524,96.173,94.798z M82.01,101.4v0.01l5.375,6.857
		H74.703C76.318,106.429,78.822,103.843,82.01,101.4z M74.039,111.466h13.561l-5.713,8.196
		C77.83,116.821,75.357,113.562,74.039,111.466z M89.605,123.554c-1.948-0.632-3.65-1.385-4.968-2.195l6.897-9.894h6.54
		l-8.117,12.222C89.85,123.65,89.725,123.6,89.605,123.554z M100.828,125.437c-2.617-0.071-5.19-0.398-7.562-0.907l8.681-13.065
		h7.184L100.828,125.437z M121.937,115.809c-0.245,0.511-0.94,1.814-2.357,3.3c-0.018,0.018-0.037,0.036-0.055,0.056
		c-0.202,0.209-0.413,0.422-0.646,0.636c-3.667,3.491-8.825,5.121-14.136,5.538l8.139-13.874h9.055V115.809z M121.937,104.558
		h-0.012v3.709h-8.849l-4.925-12.968c8.401,1.83,12.661,6.121,13.787,7.439V104.558z"/>
	<path fill="#231F20" stroke="#231F20" stroke-width="0.25" stroke-miterlimit="10" d="M190.25,107.118
		c-0.022-0.163-0.062-0.317-0.125-0.461c-0.03-0.06-0.062-0.122-0.102-0.182c-0.031-0.064-0.051-0.124-0.104-0.185
		c-0.442-0.562-9.236-11.404-25.917-15.446c-2.012-0.429-2.829-0.567-4.376-0.861c-1.761-0.276-3.603-0.459-5.519-0.562
		c-1.434-0.029-4.261,0.047-5.1,0.149c-0.814,0.102-2.458,0.403-2.488,0.413c-1.411,0.36-2.811,0.84-4.181,1.413
		c0,0-2.311,1.117-4.726,2.355c-5.108,2.948-9.02,6.387-9.843,7.135c-0.425,0.377-0.403,0.446-0.68,0.852v2.843v12.649
		c0,0,1.544,2.417,3.264,4.052c13.14,12.493,34.79,5.392,40.384,2.562c12.988-6.572,18.925-15.219,19.235-15.649
		c0.051-0.073,0.083-0.164,0.122-0.248c0.03-0.06,0.062-0.101,0.082-0.162c0.051-0.164,0.083-0.327,0.083-0.491v-0.071
		c0-0.01,0.01-0.01,0.01-0.02C190.271,107.171,190.25,107.148,190.25,107.118z M185.028,105.829l-9.874,0.43l3.194-5.671
		C181.281,102.501,183.526,104.396,185.028,105.829z M175.567,98.889l-4.232,7.545l-7.034,0.307l7.024-9.971
		C172.837,97.446,174.259,98.153,175.567,98.889z M161.738,93.638c2.328,0.501,4.479,1.147,6.497,1.884l-8.021,11.394l-9.596,0.418
		L161.738,93.638z M148.249,92.859c1.009-0.195,2.018-0.317,2.996-0.317c2.399,0,4.665,0.175,6.837,0.461l-11.789,14.525
		l-5.119,0.226L148.249,92.859z M130.354,102.912c1.699-1.485,7.434-6.224,13.674-8.741l-6.528,13.745l-7.146,0.309V102.912z
		 M136.154,121.861c-0.007,0.002-0.016,0.004-0.023,0.006c-0.348-0.215-0.66-0.439-0.971-0.663
		c-0.003-0.002-0.005-0.004-0.008-0.006c-0.262-0.187-0.506-0.373-0.744-0.563c-0.089-0.071-0.175-0.142-0.263-0.215
		c-0.22-0.185-0.44-0.366-0.638-0.546c-0.002-0.004-0.007-0.008-0.01-0.01c-1.928-1.772-2.86-3.437-3.144-4.026v-4.419l9.744-0.427
		l-2.363,0.108l4.268,13.271C139.853,123.764,137.88,122.929,136.154,121.861z M145.684,125.148l-4.569-14.199l-0.002-0.002
		l1.493-0.063l6.268-0.273l-2.696,0.122l8.302,14.548C151.406,125.597,148.44,125.549,145.684,125.148z M166.599,122.217
		c-0.006-0.002-0.013-0.006-0.017-0.008c-2.895,1.186-5.801,2.034-8.648,2.575l-8.097-14.215l8.401-0.366l0.001,0.002l1.975-0.087
		l7.311,11.69C167.332,121.896,166.706,122.17,166.599,122.217z M170.46,120.393l-6.529-10.439l7.6-0.329l5.198,6.848
		C174.856,117.835,172.767,119.176,170.46,120.393z M179.282,114.478l-3.819-5.024l9.577-0.421
		C183.69,110.507,181.755,112.452,179.282,114.478z"/>
</g>
<path fill="none" stroke="#231F20" stroke-width="3" stroke-miterlimit="10" d="M93.91,178.5"/>
<path fill="none" stroke="#231F20" stroke-width="3" stroke-miterlimit="10" d="M93.91,136.002"/>
<path fill-rule="evenodd" clip-rule="evenodd" fill="#EB2329" d="M123.958,206.543c-2.002,1.954-3.88,4.061-6.054,5.8
	c-1.265,1.012-2.943,1.72-4.543,2.058c-3.125,0.661-5.576-1.662-5.473-4.875c0.01-0.341,0.041-0.681,0.074-1.189
	c-2.326,1.389-4.65,2.462-7.246,1.345c-2.623-1.128-3.724-3.294-3.619-6.085c-6.324-0.15-7.978-1.755-7.864-7.654
	c-0.213,0-0.428-0.022-0.636,0.003c-3.873,0.469-6.495-2.541-5.527-6.352c0.123-0.483,0.276-0.958,0.415-1.434
	c0.61-1.056,0.746-1.614,1.833-3.166c2.615-2.705,5.165-5.481,7.885-8.079c0.904-0.864,2.188-1.446,3.402-1.843
	c2.472-0.81,5.069,0.7,5.795,3.204c0.15,0.512,0.211,1.05,0.342,1.731c2.142-1.1,4.342-2.048,6.753-1.052
	c2.355,0.972,3.694,2.796,4.099,5.39c2.87-0.969,5.406-0.671,7.3,1.912c1.814,2.473,1.4,5.057,0.272,7.753
	c0.726-0.034,1.396-0.157,2.044-0.081c3.203,0.379,4.929,2.97,4.065,6.175c-0.316,1.175-0.871,2.287-1.317,3.427
	C125.291,204.536,124.624,205.539,123.958,206.543z M100.743,203.501c-0.092,2.468,1.299,3.575,3.1,2.993
	c0.822-0.266,1.687-0.669,2.308-1.25c3.029-2.833,6.097-5.641,8.914-8.679c1.375-1.483,2.387-3.371,3.274-5.216
	c0.699-1.457,0.212-2.833-0.863-3.626c-1.115-0.821-2.278-0.4-3.232,0.23c-1.532,1.01-3.019,2.123-4.381,3.351
	c-3.094,2.789-5.96,5.8-7.996,9.481C101.302,201.806,100.964,202.955,100.743,203.501z M92.496,197.667
	c0.174,1.393,0.972,2.327,2.325,2.46c1.835,0.181,3.467-0.531,4.428-1.976c2.496-3.757,5.601-6.93,8.824-10.032
	c0.746-0.719,1.354-1.696,1.721-2.668c0.716-1.893-1.073-3.8-3.052-3.308c-0.804,0.202-1.628,0.538-2.302,1.013
	c-4.426,3.117-8.13,6.934-10.834,11.649C93.103,195.682,92.86,196.709,92.496,197.667z M111.446,209.129
	c-0.01,1.677,0.507,2.148,1.715,1.827c0.693-0.184,1.445-0.435,1.973-0.887c1.86-1.593,3.842-3.117,5.382-4.992
	c1.383-1.686,2.388-3.735,3.284-5.746c0.63-1.414-0.281-2.252-1.783-1.815c-0.76,0.22-1.533,0.549-2.174,1.006
	c-3.208,2.287-5.778,5.17-7.667,8.632C111.781,207.877,111.595,208.717,111.446,209.129z M86.449,190.505
	c-0.043,1.708,0.663,2.317,1.829,1.945c0.678-0.218,1.383-0.566,1.894-1.047c1.984-1.873,3.982-3.742,5.8-5.771
	c1.061-1.186,1.88-2.621,2.636-4.035c0.494-0.922,0.983-2.12-0.062-2.967c-0.993-0.806-1.923,0.032-2.679,0.618
	c-3.213,2.489-6.051,5.357-8.259,8.789C87.04,188.922,86.703,189.954,86.449,190.505z"/>
<path fill-rule="evenodd" clip-rule="evenodd" fill="#EB2329" d="M135.991,150.857c0.374,1.708-0.046,2.215-2.21,2.668
	c-2.527,0.381-4.323,2.039-6.235,3.524c-2.058,1.6-3.069,3.473-2.76,6.231c0.267,2.38,0.107,4.847-0.169,7.24
	c-0.344,2.98-1.88,5.178-5.01,5.89c-3.105,0.706-6.216-0.546-8.046-3.264c-1.664-2.47-2.077-5.31-2.45-8.191
	c-1.079-8.342,3.201-14.165,8.932-19.333c1.341-1.208,2.721-2.373,4.084-3.557c1.067-0.813,2.133-1.628,3.2-2.443
	c0.552-0.394,1.103-0.789,1.656-1.183c1.171-0.84,2.342-1.678,3.512-2.518c0.842-0.602,1.684-1.203,2.527-1.803
	c1.2-0.591,2.4-1.183,3.6-1.774c1.703-0.49,3.408-0.98,5.112-1.469c1.154-0.224,2.311-0.449,3.467-0.672
	c2.52-0.232,5.04-0.465,7.56-0.699c1.339-0.006,2.678-0.012,4.016-0.018c0.765,0.062,1.531,0.112,2.294,0.188
	c3.746,0.374,7.248,1.59,10.668,3.089c1.267,0.699,2.533,1.399,3.8,2.097c3.292,3.005,7.417,3.758,11.62,4.145
	c3.754,0.347,7.529,0.487,11.295,0.715c1.08,0.066,1.783,0.737,1.791,1.717c0.007,0.968-0.704,1.756-1.766,1.737
	c-6.584-0.112-13.174-0.281-19.521-2.327c-1.259-0.405-2.48-1.066-3.571-1.822c-4.498-3.123-9.345-5.431-14.84-5.869
	c-3.17-0.252-6.395-0.102-9.575,0.137c-3.877,0.29-7.719,0.969-11.324,2.513c-1.472,0.63-2.924,1.405-4.21,2.352
	c-4.027,2.97-8.051,5.956-11.915,9.129c-2.01,1.651-3.739,3.66-5.496,5.597c-3.187,3.513-3.947,7.759-3.301,12.288
	c0.267,1.877,0.814,3.745,1.488,5.521c0.525,1.389,1.701,2.261,3.293,2.355c2.181,0.128,3.367-0.64,3.595-2.818
	c0.252-2.399,0.161-4.835,0.206-7.256c0.009-0.46-0.06-0.922-0.075-1.384c-0.061-1.966,0.45-3.661,1.924-5.111
	c2.319-2.284,4.683-4.476,7.742-5.728c0.881-0.36,1.83-0.572,2.764-0.777C134.598,149.769,135.413,150.033,135.991,150.857z"/>
<g>
	<path fill="#EB2329" d="M69.336,156.377c0,5.757-2.348,7.924-7.089,7.924h-4.403v-15.805h4.403
		C66.988,148.497,69.336,150.643,69.336,156.377z M66.762,156.377c0-4.47-1.31-5.622-4.245-5.622h-2.099v11.288h2.099
		C65.452,162.044,66.762,160.893,66.762,156.377z"/>
	<path fill="#EB2329" d="M82.474,159.855c0,2.777-2.484,4.629-5.554,4.629c-2.461,0-4.786-1.243-5.735-3.41l1.851-1.196
		c0.971,1.603,2.506,2.281,3.883,2.281c1.264,0,2.958-0.519,2.958-2.213c0-1.423-1.242-2.032-3.341-2.778
		c-3.026-1.038-4.696-2.37-4.696-4.582c0-2.506,2.235-4.268,5.125-4.268c2.8,0,4.629,1.58,5.374,3.025l-1.761,1.288
		c-1.129-1.513-2.258-1.987-3.567-1.987s-2.574,0.609-2.574,1.964c0,0.948,0.61,1.558,2.619,2.326
		C79.787,155.994,82.474,156.92,82.474,159.855z"/>
	<path fill="#EB2329" d="M93.49,160.961h-5.893l-0.948,3.341h-2.664l4.719-15.805h3.681l4.719,15.805h-2.664L93.49,160.961z
		 M92.858,158.725l-2.145-7.518h-0.339l-2.145,7.518H92.858z"/>
	<path fill="#231F20" d="M169.338,148.497v15.805h-3.207l-5.034-11.695h-0.09v11.695h-2.574v-15.805h3.206l5.035,11.673h0.091
		v-11.673H169.338z"/>
	<path fill="#231F20" d="M181.98,150.823h-3.749v13.479h-2.574v-13.479h-3.792v-2.326h10.115V150.823z"/>
	<path fill="#231F20" d="M192.905,160.441l1.739,1.445c-1.174,1.807-2.71,2.574-4.967,2.574c-3.929,0-6.3-2.461-6.3-8.061
		c0-5.599,2.371-8.06,6.3-8.06c2.258,0,3.793,0.768,4.967,2.551l-1.739,1.467c-0.7-1.219-1.829-1.693-3.229-1.693
		c-2.19,0-3.726,1.49-3.726,5.735c0,4.223,1.536,5.735,3.726,5.735C191.076,162.134,192.205,161.66,192.905,160.441z"/>
</g>
<g>
	<path fill="#FFFFFF" d="M131.949,24.255c-0.071,1.92-0.826,2.923-2.235,2.871c-1.417-0.053-2.096-1.109-2.024-3.029
		c0.07-1.912,0.825-2.907,2.243-2.854C131.341,21.295,132.021,22.344,131.949,24.255z M131.01,24.221
		c0.056-1.492-0.31-2.099-1.109-2.129c-0.799-0.029-1.217,0.549-1.271,2.041c-0.056,1.508,0.317,2.116,1.117,2.146
		C130.545,26.307,130.954,25.729,131.01,24.221z"/>
	<path fill="#FFFFFF" d="M134.709,21.58l-0.427,5.757l-0.922-0.068l0.355-4.787c-0.379,0.204-0.78,0.372-1.144,0.37l0.065-0.888
		c0.366-0.022,0.771-0.241,1.15-0.452L134.709,21.58z"/>
	<path fill="#FFFFFF" d="M139.706,24.998c-0.217,1.909-1.046,2.852-2.447,2.693c-1.409-0.16-2.006-1.265-1.789-3.174
		c0.217-1.901,1.045-2.836,2.454-2.676C139.325,22,139.923,23.097,139.706,24.998z M138.772,24.892
		c0.168-1.483-0.149-2.117-0.944-2.207s-1.255,0.455-1.424,1.938c-0.17,1.5,0.156,2.134,0.951,2.225
		C138.149,26.938,138.602,26.391,138.772,24.892z"/>
	<path fill="#FFFFFF" d="M144.385,25.736c-0.306,1.898-1.179,2.803-2.572,2.579c-1.401-0.226-1.946-1.358-1.641-3.257
		c0.305-1.891,1.176-2.787,2.578-2.561C144.143,22.722,144.689,23.846,144.385,25.736z M143.456,25.587
		c0.237-1.475-0.051-2.123-0.842-2.25c-0.79-0.127-1.275,0.396-1.514,1.871c-0.24,1.491,0.057,2.141,0.848,2.268
		C142.738,27.603,143.216,27.078,143.456,25.587z"/>
	<path fill="#FFFFFF" d="M147.459,23.422l-1.133,5.661l-0.905-0.181l0.941-4.707c-0.401,0.155-0.82,0.273-1.181,0.227l0.175-0.874
		c0.365,0.023,0.794-0.144,1.196-0.307L147.459,23.422z"/>
	<path fill="#FFFFFF" d="M150.483,24.095l-1.303,5.629l-0.901-0.208l1.084-4.68c-0.406,0.144-0.829,0.249-1.188,0.191l0.201-0.868
		c0.365,0.034,0.799-0.12,1.207-0.271L150.483,24.095z"/>
	<path fill="#FFFFFF" d="M154.899,28.232c-0.505,1.856-1.469,2.663-2.831,2.292c-1.37-0.373-1.792-1.557-1.287-3.413
		c0.502-1.848,1.464-2.647,2.834-2.274C154.978,25.208,155.401,26.384,154.899,28.232z M153.991,27.985
		c0.392-1.442,0.174-2.117-0.599-2.327c-0.773-0.21-1.312,0.259-1.703,1.701c-0.396,1.458-0.171,2.135,0.602,2.345
		C153.064,29.915,153.595,29.443,153.991,27.985z"/>
	<path fill="#FFFFFF" d="M159.408,29.683c-0.59,1.827-1.589,2.587-2.93,2.154c-1.35-0.436-1.715-1.637-1.125-3.464
		c0.588-1.82,1.584-2.572,2.933-2.136C159.628,26.67,159.996,27.863,159.408,29.683z M158.515,29.394
		c0.458-1.419,0.271-2.103-0.489-2.349c-0.761-0.246-1.319,0.198-1.777,1.617c-0.464,1.435-0.27,2.122,0.491,2.367
		S158.051,30.83,158.515,29.394z"/>
	<path fill="#FFFFFF" d="M165.718,32.108c-0.711,1.785-1.759,2.477-3.068,1.955c-1.317-0.525-1.603-1.748-0.892-3.533
		c0.708-1.777,1.753-2.461,3.07-1.937C166.138,29.116,166.426,30.331,165.718,32.108z M164.845,31.76
		c0.553-1.386,0.412-2.082-0.331-2.377s-1.33,0.109-1.883,1.496c-0.559,1.402-0.41,2.1,0.333,2.396
		C163.706,33.57,164.286,33.162,164.845,31.76z"/>
	<path fill="#FFFFFF" d="M169.232,30.528l-2.35,5.276l-0.845-0.376l1.954-4.387c-0.426,0.063-0.86,0.086-1.202-0.039l0.362-0.814
		c0.352,0.103,0.807,0.034,1.235-0.037L169.232,30.528z"/>
	<path fill="#FFFFFF" d="M172.03,31.851l-2.499,5.202l-0.833-0.4l2.078-4.325c-0.427,0.051-0.861,0.062-1.199-0.073l0.386-0.803
		c0.348,0.113,0.805,0.058,1.235-0.001L172.03,31.851z"/>
	<path fill="#FFFFFF" d="M175.434,36.853c-0.899,1.699-2.017,2.275-3.264,1.615c-1.255-0.664-1.407-1.911-0.508-3.611
		c0.896-1.692,2.01-2.261,3.264-1.597C176.173,33.92,176.329,35.161,175.434,36.853z M174.602,36.413
		c0.699-1.32,0.634-2.026-0.073-2.401s-1.336-0.035-2.034,1.285c-0.707,1.335-0.635,2.045,0.073,2.42
		C173.274,38.091,173.896,37.748,174.602,36.413z"/>
	<path fill="#FFFFFF" d="M179.082,35.643l-2.895,4.999l-0.8-0.463l2.406-4.156c-0.43,0.018-0.865-0.005-1.191-0.166l0.446-0.771
		c0.339,0.139,0.799,0.119,1.233,0.094L179.082,35.643z"/>
	<path fill="#FFFFFF" d="M182.067,40.877c-1.023,1.625-2.18,2.114-3.372,1.363c-1.199-0.756-1.257-2.01-0.232-3.635
		c1.02-1.618,2.171-2.1,3.37-1.344C183.025,38.013,183.087,39.26,182.067,40.877z M181.272,40.376
		c0.796-1.262,0.784-1.971,0.108-2.397c-0.677-0.426-1.328-0.135-2.123,1.127c-0.805,1.276-0.786,1.989-0.109,2.416
		C179.824,41.948,180.469,41.653,181.272,40.376z"/>
	<path fill="#FFFFFF" d="M185.974,43.59c-1.099,1.575-2.275,2.01-3.432,1.203c-1.163-0.811-1.161-2.066-0.063-3.641
		c1.094-1.568,2.267-1.996,3.429-1.185C187.064,40.773,187.067,42.021,185.974,43.59z M185.203,43.052
		c0.854-1.224,0.875-1.932,0.22-2.389c-0.655-0.458-1.319-0.197-2.173,1.026c-0.863,1.237-0.878,1.95-0.223,2.407
		C183.684,44.554,184.341,44.289,185.203,43.052z"/>
	<path fill="#FFFFFF" d="M189.745,42.842l-3.482,4.604l-0.736-0.557l2.895-3.828c-0.428-0.035-0.856-0.111-1.161-0.31l0.537-0.71
		c0.319,0.179,0.778,0.216,1.212,0.244L189.745,42.842z"/>
	<path fill="#FFFFFF" d="M193.595,49.718c-1.244,1.465-2.459,1.786-3.534,0.873c-1.081-0.918-0.96-2.169,0.284-3.634
		c1.239-1.458,2.448-1.773,3.529-0.855C194.949,47.016,194.834,48.26,193.595,49.718z M192.878,49.109
		c0.967-1.138,1.056-1.841,0.446-2.359c-0.61-0.518-1.296-0.322-2.263,0.816c-0.978,1.15-1.061,1.859-0.45,2.377
		C191.221,50.462,191.9,50.26,192.878,49.109z"/>
	<path fill="#FFFFFF" d="M197.414,49.331l-3.909,4.251l-0.68-0.625l3.25-3.534c-0.424-0.076-0.843-0.193-1.127-0.42l0.603-0.656
		c0.301,0.209,0.754,0.29,1.184,0.359L197.414,49.331z"/>
	<path fill="#FFFFFF" d="M199.66,51.491l-4.026,4.134l-0.662-0.645l3.349-3.437c-0.421-0.088-0.837-0.216-1.113-0.452l0.621-0.638
		c0.294,0.218,0.744,0.311,1.171,0.393L199.66,51.491z"/>
	<path fill="#FFFFFF" d="M201.286,57.301c-1.394,1.326-2.637,1.517-3.609,0.494c-0.979-1.029-0.727-2.261,0.667-3.587
		c1.388-1.32,2.625-1.505,3.604-0.477C202.921,54.754,202.674,55.98,201.286,57.301z M200.638,56.619
		c1.082-1.03,1.246-1.721,0.693-2.301c-0.552-0.58-1.256-0.458-2.338,0.573c-1.095,1.042-1.253,1.738-0.7,2.319
		C198.845,57.789,199.543,57.66,200.638,56.619z"/>
	<path fill="#FFFFFF" d="M204.423,60.906c-1.454,1.258-2.704,1.391-3.628,0.324c-0.929-1.074-0.619-2.292,0.835-3.55
		c1.448-1.253,2.691-1.38,3.621-0.307C206.175,58.44,205.87,59.653,204.423,60.906z M203.807,60.195
		c1.13-0.978,1.325-1.66,0.802-2.266c-0.524-0.605-1.233-0.516-2.362,0.462c-1.143,0.988-1.332,1.677-0.809,2.282
		C201.962,61.279,202.665,61.183,203.807,60.195z"/>
	<path fill="#FFFFFF" d="M207.367,64.613c-1.508,1.191-2.762,1.268-3.636,0.161c-0.879-1.113-0.515-2.315,0.992-3.506
		c1.501-1.186,2.748-1.257,3.628-0.144C209.226,62.23,208.867,63.427,207.367,64.613z M206.784,63.875
		c1.171-0.925,1.396-1.597,0.9-2.225c-0.496-0.627-1.207-0.57-2.378,0.355c-1.184,0.936-1.404,1.614-0.908,2.241
		C204.894,64.875,205.6,64.811,206.784,63.875z"/>
	<path fill="#FFFFFF" d="M211.2,65.006l-4.668,3.396l-0.544-0.747l3.881-2.824c-0.4-0.157-0.788-0.354-1.021-0.633l0.72-0.524
		c0.254,0.264,0.682,0.432,1.089,0.585L211.2,65.006z"/>
	<path fill="#FFFFFF" d="M211.82,70.994c-1.597,1.074-2.854,1.054-3.642-0.118c-0.793-1.179-0.337-2.351,1.259-3.424
		c1.59-1.069,2.84-1.044,3.633,0.134C213.858,68.758,213.409,69.925,211.82,70.994z M211.295,70.213
		c1.24-0.834,1.517-1.488,1.069-2.153c-0.446-0.665-1.161-0.662-2.401,0.173c-1.254,0.843-1.525,1.504-1.079,2.168
		C209.331,71.066,210.041,71.057,211.295,70.213z"/>
	<path fill="#FFFFFF" d="M215.276,76.801c-1.664,0.964-2.916,0.859-3.624-0.362c-0.711-1.228-0.178-2.366,1.486-3.33
		c1.656-0.959,2.901-0.851,3.613,0.377C217.459,74.708,216.933,75.842,215.276,76.801z M214.805,75.987
		c1.293-0.749,1.612-1.382,1.211-2.074c-0.4-0.693-1.113-0.738-2.406,0.011c-1.307,0.756-1.622,1.397-1.221,2.09
		C212.789,76.706,213.498,76.744,214.805,75.987z"/>
	<path fill="#FFFFFF" d="M219.011,77.709l-5.105,2.703l-0.432-0.817l4.244-2.247c-0.374-0.213-0.73-0.463-0.922-0.772l0.788-0.417
		c0.213,0.297,0.613,0.524,0.995,0.733L219.011,77.709z"/>
	<path fill="#FFFFFF" d="M220.413,80.504l-5.181,2.553l-0.408-0.829l4.307-2.123c-0.367-0.223-0.717-0.483-0.899-0.798l0.8-0.394
		c0.205,0.304,0.599,0.542,0.974,0.762L220.413,80.504z"/>
	<path fill="#FFFFFF" d="M219.988,86.513c-1.757,0.782-2.991,0.546-3.564-0.743c-0.578-1.297,0.072-2.372,1.829-3.154
		c1.748-0.779,2.976-0.539,3.553,0.757C222.38,84.663,221.737,85.734,219.988,86.513z M219.605,85.654
		c1.364-0.608,1.749-1.204,1.424-1.935c-0.326-0.731-1.029-0.851-2.395-0.244c-1.379,0.614-1.761,1.218-1.435,1.949
		C217.525,86.156,218.226,86.269,219.605,85.654z"/>
	<path fill="#FFFFFF" d="M221.738,90.951c-1.791,0.701-3.015,0.407-3.528-0.908c-0.517-1.323,0.183-2.368,1.975-3.068
		c1.784-0.697,2.999-0.401,3.517,0.922C224.215,89.212,223.523,90.254,221.738,90.951z M221.396,90.075
		c1.392-0.544,1.804-1.122,1.513-1.868c-0.292-0.746-0.99-0.898-2.382-0.354c-1.407,0.55-1.816,1.136-1.525,1.881
		C219.294,90.479,219.988,90.625,221.396,90.075z"/>
	<path fill="#FFFFFF" d="M225.285,92.428l-5.458,1.891l-0.302-0.874l4.537-1.572c-0.337-0.268-0.65-0.569-0.793-0.904l0.842-0.292
		c0.166,0.327,0.526,0.612,0.872,0.877L225.285,92.428z"/>
	<path fill="#FFFFFF" d="M224.116,98.336c-1.838,0.558-3.033,0.171-3.442-1.178c-0.412-1.357,0.365-2.343,2.204-2.901
		c1.83-0.556,3.017-0.167,3.429,1.19C226.716,96.796,225.946,97.78,224.116,98.336z M223.843,97.437
		c1.428-0.434,1.884-0.977,1.651-1.742s-0.916-0.971-2.344-0.538c-1.443,0.438-1.896,0.989-1.664,1.754
		C221.719,97.677,222.399,97.875,223.843,97.437z"/>
	<path fill="#FFFFFF" d="M227.547,100.078l-5.587,1.463l-0.234-0.894l4.645-1.216c-0.315-0.293-0.604-0.618-0.721-0.962l0.862-0.226
		c0.14,0.339,0.478,0.651,0.801,0.941L227.547,100.078z"/>
	<path fill="#FFFFFF" d="M226.311,107.858c-1.884,0.38-3.037-0.119-3.316-1.502c-0.28-1.391,0.588-2.299,2.473-2.679
		c1.876-0.379,3.021,0.123,3.302,1.513C229.048,106.573,228.188,107.479,226.311,107.858z M226.125,106.936
		c1.464-0.295,1.969-0.793,1.811-1.578c-0.158-0.785-0.819-1.055-2.282-0.76c-1.48,0.299-1.984,0.805-1.826,1.589
		C223.985,106.972,224.645,107.235,226.125,106.936z"/>
	<path fill="#FFFFFF" d="M229.556,109.937l-5.703,0.918l-0.147-0.913l4.742-0.764c-0.285-0.322-0.543-0.673-0.625-1.028l0.88-0.142
		c0.106,0.351,0.413,0.694,0.707,1.015L229.556,109.937z"/>
	<path fill="#FFFFFF" d="M229.98,112.985l-5.726,0.758l-0.121-0.916l4.76-0.631c-0.276-0.329-0.523-0.688-0.596-1.044l0.883-0.117
		c0.097,0.353,0.394,0.705,0.678,1.034L229.98,112.985z"/>
	<path fill="#FFFFFF" d="M230.316,116.072l-5.746,0.587l-0.094-0.919l4.777-0.488c-0.267-0.338-0.503-0.704-0.564-1.062l0.887-0.091
		c0.086,0.356,0.371,0.717,0.646,1.054L230.316,116.072z"/>
	<path fill="#FFFFFF" d="M227.823,121.583c-1.92,0.121-2.995-0.531-3.083-1.94c-0.09-1.417,0.896-2.199,2.815-2.32
		c1.911-0.121,2.979,0.532,3.067,1.949C230.712,120.682,229.735,121.463,227.823,121.583z M227.765,120.644
		c1.491-0.094,2.06-0.519,2.01-1.317c-0.051-0.799-0.669-1.158-2.16-1.064c-1.508,0.095-2.076,0.528-2.025,1.327
		C225.639,120.389,226.257,120.739,227.765,120.644z"/>
	<path fill="#FFFFFF" d="M227.918,126.366c-1.924,0.032-2.968-0.669-2.991-2.081c-0.023-1.42,0.997-2.155,2.92-2.187
		c1.915-0.032,2.951,0.669,2.975,2.089C230.845,125.599,229.833,126.334,227.918,126.366z M227.902,125.425
		c1.494-0.025,2.082-0.423,2.068-1.224c-0.013-0.801-0.614-1.187-2.108-1.162c-1.511,0.025-2.099,0.431-2.085,1.232
		S226.392,125.45,227.902,125.425z"/>
	<path fill="#FFFFFF" d="M230.741,128.956l-5.778-0.117l0.019-0.925l4.805,0.098c-0.225-0.368-0.414-0.76-0.432-1.124l0.892,0.018
		c0.042,0.364,0.281,0.757,0.514,1.125L230.741,128.956z"/>
	<path fill="#FFFFFF" d="M227.603,134.132c-1.919-0.11-2.908-0.887-2.827-2.296c0.081-1.417,1.152-2.075,3.072-1.965
		c1.911,0.11,2.892,0.886,2.811,2.303C230.577,133.583,229.515,134.241,227.603,134.132z M227.657,133.192
		c1.491,0.085,2.106-0.268,2.152-1.067c0.046-0.799-0.524-1.229-2.016-1.314c-1.508-0.086-2.124,0.275-2.17,1.074
		C225.578,132.685,226.149,133.105,227.657,133.192z"/>
	<path fill="#FFFFFF" d="M226.844,140.866c-1.909-0.238-2.844-1.078-2.669-2.479c0.176-1.409,1.289-1.995,3.198-1.757
		c1.9,0.237,2.828,1.077,2.652,2.486C229.851,140.518,228.745,141.104,226.844,140.866z M226.961,139.933
		c1.483,0.185,2.121-0.127,2.22-0.922c0.1-0.794-0.441-1.262-1.925-1.446c-1.499-0.188-2.138,0.133-2.237,0.928
		C224.919,139.286,225.461,139.745,226.961,139.933z"/>
	<path fill="#FFFFFF" d="M229.271,143.839l-5.703-0.929l0.148-0.913l4.742,0.772c-0.17-0.396-0.303-0.811-0.269-1.173l0.88,0.144
		c-0.01,0.366,0.172,0.789,0.351,1.187L229.271,143.839z"/>
	<path fill="#FFFFFF" d="M228.697,146.898l-5.672-1.101l0.177-0.907l4.715,0.914c-0.157-0.4-0.278-0.818-0.233-1.18l0.875,0.17
		c-0.021,0.365,0.149,0.794,0.315,1.195L228.697,146.898z"/>
	<path fill="#FFFFFF" d="M228.03,149.926l-5.629-1.271l0.203-0.901l4.681,1.058c-0.146-0.405-0.253-0.826-0.197-1.186l0.868,0.195
		c-0.031,0.365,0.125,0.798,0.278,1.204L228.03,149.926z"/>
	<path fill="#FFFFFF" d="M223.924,154.345c-1.855-0.494-2.667-1.452-2.304-2.814c0.364-1.37,1.545-1.798,3.4-1.304
		c1.848,0.492,2.651,1.448,2.286,2.818C226.944,154.407,225.771,154.837,223.924,154.345z M224.166,153.437
		c1.441,0.384,2.114,0.162,2.32-0.61s-0.266-1.308-1.708-1.691c-1.457-0.388-2.133-0.158-2.338,0.614
		C222.234,152.521,222.708,153.049,224.166,153.437z"/>
	<path fill="#FFFFFF" d="M225.924,157.631l-5.522-1.698l0.271-0.884l4.592,1.412c-0.114-0.415-0.189-0.844-0.106-1.198l0.852,0.262
		c-0.06,0.362,0.063,0.806,0.186,1.223L225.924,157.631z"/>
	<path fill="#FFFFFF" d="M221.479,161.726c-1.813-0.637-2.548-1.655-2.081-2.985c0.47-1.339,1.681-1.675,3.493-1.038
		c1.806,0.634,2.533,1.649,2.063,2.988C224.488,162.021,223.285,162.359,221.479,161.726z M221.791,160.839
		c1.409,0.494,2.098,0.325,2.362-0.43s-0.164-1.325-1.572-1.819c-1.425-0.5-2.116-0.323-2.381,0.432
		S220.367,160.339,221.791,160.839z"/>
	<path fill="#FFFFFF" d="M219.709,166.133c-1.781-0.722-2.467-1.774-1.938-3.081c0.532-1.315,1.758-1.593,3.539-0.871
		c1.773,0.718,2.452,1.768,1.919,3.082C222.7,166.57,221.482,166.852,219.709,166.133z M220.063,165.261
		c1.384,0.561,2.079,0.425,2.38-0.316c0.301-0.742-0.102-1.332-1.485-1.893c-1.398-0.566-2.098-0.423-2.398,0.318
		C218.259,164.112,218.663,164.694,220.063,165.261z"/>
	<path fill="#FFFFFF" d="M216.836,172.271c-1.731-0.839-2.347-1.936-1.73-3.206c0.619-1.278,1.861-1.475,3.593-0.636
		c1.724,0.836,2.332,1.929,1.713,3.207C219.795,172.906,218.561,173.106,216.836,172.271z M217.247,171.424
		c1.345,0.651,2.049,0.562,2.398-0.159s-0.013-1.337-1.358-1.988c-1.359-0.659-2.067-0.562-2.417,0.159
		C215.521,170.156,215.887,170.765,217.247,171.424z"/>
	<path fill="#FFFFFF" d="M218.176,175.855l-5.095-2.713l0.435-0.815l4.235,2.256c-0.033-0.429-0.025-0.864,0.123-1.196l0.786,0.419
		c-0.127,0.344-0.091,0.802-0.05,1.234L218.176,175.855z"/>
	<path fill="#FFFFFF" d="M216.664,178.568l-5.021-2.862l0.458-0.804l4.174,2.38c-0.021-0.43-0.001-0.865,0.158-1.192l0.774,0.441
		c-0.138,0.34-0.114,0.8-0.086,1.233L216.664,178.568z"/>
	<path fill="#FFFFFF" d="M211.435,181.593c-1.632-1.017-2.128-2.172-1.382-3.369c0.751-1.205,2.006-1.269,3.638-0.252
		c1.625,1.013,2.114,2.163,1.363,3.368C214.308,182.537,213.06,182.605,211.435,181.593z M211.933,180.795
		c1.268,0.789,1.977,0.774,2.399,0.095c0.424-0.679,0.129-1.329-1.139-2.119c-1.281-0.799-1.995-0.776-2.419-0.098
		C210.352,179.353,210.65,179.996,211.933,180.795z"/>
	<path fill="#FFFFFF" d="M208.745,185.514c-1.582-1.092-2.023-2.268-1.223-3.429c0.806-1.168,2.063-1.173,3.645-0.082
		c1.575,1.087,2.01,2.259,1.204,3.427C211.57,186.591,210.32,186.601,208.745,185.514z M209.279,184.739
		c1.229,0.849,1.938,0.866,2.393,0.208c0.454-0.659,0.19-1.322-1.039-2.17c-1.242-0.857-1.956-0.868-2.411-0.21
		C207.768,183.226,208.036,183.883,209.279,184.739z"/>
	<path fill="#FFFFFF" d="M205.88,189.297c-1.528-1.163-1.915-2.357-1.062-3.479c0.858-1.129,2.112-1.075,3.642,0.087
		c1.521,1.157,1.901,2.348,1.043,3.476C208.65,190.502,207.402,190.454,205.88,189.297z M206.449,188.549
		c1.188,0.902,1.895,0.954,2.378,0.317c0.484-0.637,0.251-1.311-0.937-2.214c-1.2-0.913-1.912-0.957-2.396-0.321
		C205.01,186.968,205.248,187.636,206.449,188.549z"/>
	<path fill="#FFFFFF" d="M202.822,192.98c-1.475-1.233-1.806-2.446-0.9-3.529c0.91-1.089,2.163-0.979,3.639,0.256
		c1.469,1.229,1.793,2.436,0.883,3.524C205.538,194.314,204.292,194.209,202.822,192.98z M203.426,192.259
		c1.146,0.958,1.852,1.042,2.365,0.428s0.312-1.3-0.835-2.258c-1.158-0.969-1.868-1.046-2.382-0.432S202.268,191.29,203.426,192.259
		z"/>
	<path fill="#FFFFFF" d="M203.248,196.785l-4.283-3.866l0.618-0.686l3.562,3.215c0.071-0.424,0.185-0.844,0.409-1.13l0.66,0.597
		c-0.206,0.303-0.282,0.756-0.348,1.185L203.248,196.785z"/>
	<path fill="#FFFFFF" d="M196.046,200.036c-1.351-1.369-1.564-2.607-0.56-3.599c1.01-0.998,2.246-0.768,3.597,0.601
		c1.346,1.363,1.554,2.596,0.543,3.594C198.621,201.623,197.392,201.399,196.046,200.036z M196.716,199.375
		c1.05,1.063,1.743,1.214,2.313,0.651c0.57-0.563,0.435-1.264-0.615-2.327c-1.061-1.075-1.76-1.22-2.33-0.657
		C195.514,197.604,195.654,198.3,196.716,199.375z"/>
	<path fill="#FFFFFF" d="M196.108,203.87l-3.899-4.262l0.683-0.624l3.241,3.544c0.111-0.416,0.265-0.823,0.516-1.087l0.602,0.657
		c-0.234,0.282-0.354,0.727-0.46,1.147L196.108,203.87z"/>
	<path fill="#FFFFFF" d="M193.768,205.918l-3.771-4.379l0.7-0.604l3.136,3.642c0.124-0.412,0.289-0.815,0.548-1.071l0.582,0.676
		c-0.243,0.274-0.376,0.715-0.495,1.134L193.768,205.918z"/>
	<path fill="#FFFFFF" d="M191.374,207.892l-3.643-4.486l0.718-0.583l3.028,3.73c0.137-0.408,0.313-0.807,0.579-1.055l0.562,0.691
		c-0.25,0.268-0.396,0.704-0.526,1.119L191.374,207.892z"/>
	<path fill="#FFFFFF" d="M185.414,208.823c-1.155-1.536-1.201-2.792-0.074-3.64c1.134-0.853,2.327-0.461,3.482,1.075
		c1.15,1.529,1.192,2.778,0.059,3.631C187.753,210.738,186.565,210.353,185.414,208.823z M186.166,208.258
		c0.897,1.192,1.564,1.435,2.204,0.953c0.639-0.48,0.599-1.193-0.299-2.387c-0.908-1.206-1.581-1.442-2.221-0.962
		C185.211,206.344,185.259,207.051,186.166,208.258z"/>
	<path fill="#FFFFFF" d="M184.936,212.642l-3.29-4.742l0.759-0.526l2.735,3.943c0.167-0.396,0.372-0.78,0.656-1.008l0.508,0.732
		c-0.271,0.247-0.447,0.671-0.609,1.074L184.936,212.642z"/>
	<path fill="#FFFFFF" d="M178.924,213.119c-1.034-1.621-0.984-2.877,0.205-3.636c1.197-0.764,2.357-0.28,3.393,1.341
		c1.029,1.614,0.975,2.863-0.222,3.627C181.11,215.21,179.954,214.734,178.924,213.119z M179.717,212.613
		c0.804,1.26,1.45,1.552,2.126,1.121c0.675-0.431,0.688-1.145-0.115-2.404c-0.813-1.273-1.466-1.562-2.141-1.13
		C178.912,210.631,178.904,211.34,179.717,212.613z"/>
	<path fill="#FFFFFF" d="M174.796,215.499c-0.956-1.668-0.847-2.92,0.377-3.621c1.23-0.706,2.366-0.169,3.323,1.499
		c0.952,1.66,0.838,2.904-0.393,3.61C176.88,217.689,175.748,217.159,174.796,215.499z M175.611,215.03
		c0.743,1.296,1.375,1.618,2.069,1.22s0.742-1.11-0.001-2.405c-0.751-1.31-1.39-1.628-2.084-1.23
		C174.901,213.013,174.86,213.721,175.611,215.03z"/>
	<path fill="#FFFFFF" d="M168.773,218.532c-0.843-1.729-0.65-2.97,0.618-3.588c1.275-0.622,2.373-0.01,3.216,1.718
		c0.839,1.721,0.642,2.955-0.634,3.577C170.706,220.857,169.612,220.253,168.773,218.532z M169.618,218.12
		c0.655,1.342,1.264,1.706,1.983,1.355c0.719-0.352,0.814-1.059,0.16-2.401c-0.662-1.356-1.278-1.717-1.998-1.366
		C169.045,216.059,168.957,216.763,169.618,218.12z"/>
	<path fill="#FFFFFF" d="M167.592,222.207l-2.339-5.287l0.846-0.375l1.945,4.396c0.238-0.358,0.513-0.697,0.836-0.867l0.36,0.816
		c-0.313,0.192-0.567,0.576-0.803,0.941L167.592,222.207z"/>
	<path fill="#FFFFFF" d="M164.721,223.396l-2.18-5.352l0.856-0.349l1.812,4.449c0.249-0.352,0.534-0.681,0.861-0.841l0.336,0.825
		c-0.317,0.184-0.584,0.559-0.83,0.918L164.721,223.396z"/>
	<path fill="#FFFFFF" d="M158.739,222.543c-0.654-1.806-0.331-3.02,0.994-3.499c1.333-0.483,2.358,0.241,3.013,2.048
		c0.651,1.798,0.325,3.004-1.008,3.486C160.413,225.059,159.391,224.342,158.739,222.543z M159.623,222.223
		c0.508,1.403,1.074,1.829,1.826,1.557c0.752-0.271,0.922-0.965,0.413-2.368c-0.514-1.418-1.088-1.842-1.84-1.569
		S159.108,220.805,159.623,222.223z"/>
	<path fill="#FFFFFF" d="M154.212,223.961c-0.569-1.835-0.189-3.031,1.157-3.448c1.354-0.42,2.345,0.352,2.913,2.186
		c0.566,1.827,0.185,3.016-1.17,3.436C155.766,226.552,154.778,225.787,154.212,223.961z M155.109,223.683
		c0.442,1.425,0.988,1.877,1.752,1.641c0.764-0.237,0.966-0.921,0.523-2.347c-0.446-1.44-1-1.891-1.764-1.653
		S154.663,222.242,155.109,223.683z"/>
	<path fill="#FFFFFF" d="M152.491,227.396l-1.495-5.575l0.893-0.239l1.243,4.636c0.29-0.317,0.613-0.608,0.958-0.727l0.23,0.86
		c-0.338,0.142-0.648,0.481-0.937,0.806L152.491,227.396z"/>
	<path fill="#FFFFFF" d="M146.668,225.82c-0.427-1.873,0.044-3.038,1.419-3.351c1.384-0.315,2.312,0.53,2.738,2.404
		c0.425,1.865-0.048,3.021-1.431,3.337C148.02,228.524,147.093,227.687,146.668,225.82z M147.585,225.612
		c0.331,1.455,0.841,1.948,1.621,1.771s1.034-0.845,0.702-2.3c-0.335-1.472-0.853-1.963-1.633-1.785
		C147.496,223.476,147.25,224.141,147.585,225.612z"/>
	<path fill="#FFFFFF" d="M144.697,229.112l-1.068-5.672l0.907-0.171l0.889,4.716c0.313-0.294,0.657-0.561,1.01-0.652l0.165,0.875
		c-0.348,0.116-0.683,0.431-0.995,0.733L144.697,229.112z"/>
	<path fill="#FFFFFF" d="M136.992,227.334c-0.245-1.905,0.335-3.02,1.733-3.199c1.407-0.182,2.25,0.749,2.495,2.655
		c0.244,1.897-0.337,3.003-1.743,3.184C138.079,230.154,137.237,229.231,136.992,227.334z M137.925,227.214
		c0.19,1.48,0.651,2.02,1.444,1.918c0.793-0.103,1.11-0.742,0.92-2.222c-0.193-1.497-0.661-2.035-1.455-1.934
		C138.041,225.079,137.732,225.717,137.925,227.214z"/>
	<path fill="#FFFFFF" d="M134.721,230.412l-0.513-5.746l0.919-0.082l0.427,4.777c0.341-0.262,0.709-0.493,1.068-0.55l0.079,0.886
		c-0.357,0.082-0.721,0.362-1.062,0.633L134.721,230.412z"/>
	<path fill="#FFFFFF" d="M131.598,230.633l-0.342-5.768l0.923-0.055l0.284,4.795c0.349-0.252,0.725-0.473,1.085-0.519l0.053,0.89
		c-0.359,0.07-0.731,0.341-1.08,0.602L131.598,230.633z"/>
	<path fill="#FFFFFF" d="M126.208,227.918c-0.042-1.924,0.652-2.972,2.064-3.003c1.42-0.031,2.161,0.984,2.204,2.908
		c0.042,1.915-0.653,2.954-2.073,2.985C126.992,230.841,126.251,229.833,126.208,227.918z M127.149,227.896
		c0.033,1.494,0.435,2.08,1.235,2.063s1.184-0.621,1.15-2.115c-0.033-1.511-0.443-2.097-1.243-2.078
		C127.491,225.783,127.116,226.386,127.149,227.896z"/>
	<path fill="#FFFFFF" d="M123.617,230.754l0.096-5.778l0.925,0.016l-0.08,4.804c0.367-0.225,0.758-0.416,1.122-0.436l-0.015,0.892
		c-0.364,0.044-0.756,0.285-1.124,0.519L123.617,230.754z"/>
	<path fill="#FFFFFF" d="M120.521,230.634l0.256-5.768l0.923,0.041l-0.213,4.796c0.373-0.215,0.769-0.396,1.133-0.404l-0.04,0.891
		c-0.364,0.033-0.763,0.263-1.136,0.485L120.521,230.634z"/>
	<path fill="#FFFFFF" d="M115.422,227.38c0.156-1.917,0.956-2.887,2.362-2.771c1.415,0.115,2.046,1.202,1.89,3.118
		c-0.156,1.908-0.955,2.869-2.369,2.754C115.898,230.366,115.266,229.287,115.422,227.38z M116.359,227.456
		c-0.122,1.488,0.217,2.112,1.015,2.178c0.798,0.064,1.241-0.495,1.362-1.983c0.123-1.506-0.224-2.13-1.021-2.195
		C116.917,225.391,116.482,225.951,116.359,227.456z"/>
	<path fill="#FFFFFF" d="M112.552,229.924l0.694-5.736l0.918,0.111l-0.578,4.77c0.389-0.187,0.797-0.336,1.161-0.317l-0.107,0.885
		c-0.366,0.006-0.781,0.205-1.17,0.399L112.552,229.924z"/>
	<path fill="#FFFFFF" d="M105.758,225.905c0.341-1.892,1.23-2.779,2.619-2.528c1.396,0.252,1.919,1.394,1.578,3.285
		c-0.34,1.884-1.228,2.763-2.624,2.511C105.942,228.922,105.418,227.788,105.758,225.905z M106.683,226.072
		c-0.265,1.469,0.011,2.122,0.798,2.265c0.788,0.142,1.283-0.372,1.548-1.842c0.268-1.485-0.016-2.14-0.804-2.282
		C107.438,224.07,106.951,224.586,106.683,226.072z"/>
	<path fill="#FFFFFF" d="M102.648,228.165l1.239-5.64l0.902,0.198l-1.03,4.688c0.404-0.147,0.825-0.258,1.185-0.204l-0.191,0.87
		c-0.365-0.029-0.797,0.129-1.203,0.285L102.648,228.165z"/>
	<path fill="#FFFFFF" d="M98.202,224.083c0.483-1.859,1.437-2.676,2.802-2.321c1.373,0.357,1.808,1.535,1.324,3.395
		c-0.481,1.852-1.433,2.66-2.806,2.304C98.158,227.104,97.721,225.935,98.202,224.083z M99.112,224.32
		c-0.375,1.444-0.15,2.116,0.624,2.317c0.774,0.201,1.307-0.273,1.683-1.718c0.379-1.461,0.146-2.135-0.628-2.336
		C100.016,222.383,99.492,222.859,99.112,224.32z"/>
	<path fill="#FFFFFF" d="M93.661,222.678c0.572-1.834,1.564-2.604,2.911-2.185c1.354,0.422,1.732,1.62,1.16,3.455
		c-0.57,1.826-1.56,2.589-2.914,2.166C93.471,225.694,93.091,224.505,93.661,222.678z M94.558,222.958
		c-0.444,1.425-0.251,2.107,0.512,2.346s1.319-0.211,1.763-1.636c0.45-1.441,0.249-2.126-0.515-2.364S95.008,221.517,94.558,222.958
		z"/>
	<path fill="#FFFFFF" d="M89.18,221.063c0.658-1.806,1.685-2.529,3.01-2.047c1.333,0.486,1.655,1.7,0.997,3.507
		c-0.655,1.798-1.679,2.514-3.013,2.028C88.849,224.067,88.525,222.861,89.18,221.063z M90.063,221.385
		c-0.511,1.402-0.35,2.094,0.402,2.367c0.752,0.274,1.327-0.148,1.838-1.552c0.517-1.418,0.348-2.112-0.404-2.386
		S90.58,219.966,90.063,221.385z"/>
	<path fill="#FFFFFF" d="M85.732,222.767l2.179-5.352l0.856,0.349l-1.812,4.449c0.423-0.077,0.857-0.114,1.203,0l-0.336,0.825
		c-0.355-0.091-0.808-0.008-1.234,0.077L85.732,222.767z"/>
	<path fill="#FFFFFF" d="M82.061,217.983c0.793-1.749,1.871-2.392,3.155-1.81c1.291,0.585,1.519,1.819,0.726,3.569
		c-0.79,1.741-1.865,2.376-3.156,1.791C81.502,220.952,81.271,219.726,82.061,217.983z M82.917,218.371
		c-0.616,1.359-0.508,2.06,0.22,2.39c0.728,0.33,1.333-0.047,1.949-1.406c0.623-1.373,0.507-2.077-0.221-2.407
		C84.137,216.617,83.539,216.998,82.917,218.371z"/>
	<path fill="#FFFFFF" d="M78.473,219.411l2.584-5.17l0.827,0.414l-2.149,4.298c0.428-0.044,0.864-0.048,1.2,0.092l-0.399,0.798
		c-0.347-0.118-0.805-0.07-1.237-0.019L78.473,219.411z"/>
	<path fill="#FFFFFF" d="M73.432,213.334c0.96-1.668,2.097-2.204,3.321-1.499c1.23,0.709,1.338,1.962,0.378,3.629
		c-0.956,1.66-2.089,2.189-3.32,1.48C72.587,216.24,72.476,214.994,73.432,213.334z M74.247,213.804
		c-0.746,1.295-0.706,2.004-0.012,2.403c0.694,0.4,1.334,0.082,2.08-1.213c0.754-1.31,0.707-2.022,0.013-2.422
		C75.634,212.172,75.001,212.494,74.247,213.804z"/>
	<path fill="#FFFFFF" d="M69.757,214.417l3.065-4.892l0.783,0.49l-2.548,4.067c0.43-0.003,0.863,0.035,1.184,0.207l-0.473,0.755
		c-0.333-0.15-0.793-0.147-1.228-0.137L69.757,214.417z"/>
	<path fill="#FFFFFF" d="M67.166,212.709l3.215-4.796l0.767,0.515l-2.673,3.987c0.43,0.01,0.862,0.062,1.177,0.243l-0.496,0.74
		c-0.329-0.161-0.789-0.172-1.224-0.175L67.166,212.709z"/>
	<path fill="#FFFFFF" d="M64.619,210.923l3.354-4.7l0.752,0.537l-2.789,3.907c0.43,0.023,0.86,0.087,1.17,0.277l-0.517,0.726
		c-0.324-0.171-0.784-0.194-1.218-0.211L64.619,210.923z"/>
	<path fill="#FFFFFF" d="M62.139,209.076l3.493-4.604l0.736,0.559l-2.904,3.828c0.429,0.035,0.858,0.111,1.162,0.312l-0.539,0.71
		c-0.319-0.18-0.778-0.217-1.212-0.246L62.139,209.076z"/>
	<path fill="#FFFFFF" d="M59.804,203.492c1.22-1.485,2.429-1.828,3.52-0.933c1.097,0.9,0.998,2.152-0.222,3.639
		c-1.214,1.479-2.418,1.815-3.516,0.915C58.496,206.219,58.589,204.973,59.804,203.492z M60.531,204.089
		c-0.947,1.154-1.024,1.86-0.406,2.367c0.619,0.508,1.302,0.3,2.249-0.854c0.958-1.167,1.029-1.878,0.41-2.385
		C62.166,202.709,61.489,202.922,60.531,204.089z"/>
	<path fill="#FFFFFF" d="M56.256,200.319c1.287-1.43,2.511-1.716,3.56-0.771c1.055,0.949,0.898,2.197-0.389,3.626
		c-1.282,1.423-2.5,1.703-3.555,0.753C54.823,202.983,54.974,201.742,56.256,200.319z M56.955,200.949
		c-1,1.11-1.109,1.812-0.514,2.347c0.595,0.536,1.287,0.359,2.287-0.751c1.011-1.122,1.114-1.829,0.52-2.364
		C58.652,199.645,57.966,199.826,56.955,200.949z"/>
	<path fill="#FFFFFF" d="M52.862,196.985c1.351-1.369,2.587-1.599,3.591-0.607c1.011,0.998,0.797,2.236-0.554,3.605
		c-1.345,1.362-2.575,1.587-3.585,0.589C51.309,199.581,51.517,198.349,52.862,196.985z M53.532,197.646
		c-1.05,1.063-1.191,1.759-0.621,2.321s1.269,0.418,2.319-0.646c1.061-1.075,1.196-1.776,0.626-2.339S54.593,196.571,53.532,197.646
		z"/>
	<path fill="#FFFFFF" d="M48.311,191.975c1.44-1.276,2.689-1.424,3.626-0.367c0.942,1.063,0.646,2.285-0.793,3.562
		c-1.434,1.271-2.677,1.413-3.619,0.35C46.588,194.462,46.877,193.245,48.311,191.975z M48.936,192.679
		c-1.118,0.991-1.306,1.677-0.774,2.275c0.531,0.6,1.239,0.502,2.358-0.489c1.131-1.003,1.313-1.693,0.781-2.293
		S50.066,191.676,48.936,192.679z"/>
	<path fill="#FFFFFF" d="M44.48,191.83l4.464-3.664l0.586,0.715l-3.712,3.046c0.409,0.134,0.808,0.309,1.057,0.573l-0.689,0.565
		c-0.269-0.249-0.706-0.393-1.121-0.521L44.48,191.83z"/>
	<path fill="#FFFFFF" d="M43.513,185.871c1.532-1.162,2.789-1.214,3.642-0.089c0.858,1.131,0.471,2.326-1.062,3.489
		c-1.525,1.157-2.775,1.204-3.633,0.073C41.605,188.22,41.987,187.029,43.513,185.871z M44.082,186.621
		c-1.19,0.903-1.429,1.571-0.945,2.209c0.484,0.639,1.197,0.595,2.387-0.309c1.204-0.913,1.438-1.588,0.954-2.226
		S45.285,185.708,44.082,186.621z"/>
	<path fill="#FFFFFF" d="M40.799,181.958c1.582-1.091,2.838-1.086,3.639,0.075c0.806,1.168,0.365,2.344-1.217,3.436
		c-1.576,1.087-2.825,1.077-3.631-0.091C38.79,184.217,39.224,183.045,40.799,181.958z M41.333,182.732
		c-1.229,0.848-1.498,1.504-1.043,2.163c0.454,0.658,1.168,0.647,2.397-0.201c1.243-0.856,1.507-1.521,1.052-2.179
		S42.576,181.875,41.333,182.732z"/>
	<path fill="#FFFFFF" d="M37.004,181.326l4.881-3.087l0.494,0.781l-4.058,2.566c0.389,0.183,0.764,0.405,0.979,0.698l-0.753,0.477
		c-0.236-0.28-0.652-0.476-1.049-0.655L37.004,181.326z"/>
	<path fill="#FFFFFF" d="M35.406,178.68l4.967-2.948l0.472,0.795l-4.129,2.451c0.384,0.194,0.752,0.427,0.958,0.726l-0.766,0.455
		c-0.228-0.287-0.639-0.494-1.03-0.684L35.406,178.68z"/>
	<path fill="#FFFFFF" d="M35.354,172.644c1.689-0.917,2.938-0.778,3.611,0.461c0.677,1.247,0.113,2.369-1.575,3.286
		c-1.682,0.914-2.923,0.771-3.6-0.476C33.116,174.676,33.673,173.558,35.354,172.644z M35.803,173.47
		c-1.312,0.713-1.648,1.337-1.267,2.04s1.093,0.768,2.405,0.055c1.326-0.72,1.659-1.352,1.277-2.055S37.129,172.75,35.803,173.47z"
		/>
	<path fill="#FFFFFF" d="M31.646,171.613l5.181-2.553l0.408,0.828l-4.307,2.123c0.368,0.224,0.717,0.483,0.899,0.798l-0.799,0.395
		c-0.205-0.304-0.598-0.542-0.973-0.763L31.646,171.613z"/>
	<path fill="#FFFFFF" d="M31.29,163.731c1.771-0.75,3-0.491,3.551,0.809c0.554,1.307-0.116,2.37-1.887,3.12
		c-1.763,0.747-2.985,0.485-3.539-0.821C28.865,165.539,29.527,164.479,31.29,163.731z M31.657,164.599
		c-1.375,0.582-1.771,1.171-1.459,1.908c0.313,0.737,1.014,0.87,2.39,0.287c1.391-0.589,1.783-1.186,1.471-1.923
		C33.746,164.135,33.048,164.009,31.657,164.599z"/>
	<path fill="#FFFFFF" d="M27.698,162.372l5.405-2.051l0.328,0.865l-4.494,1.705c0.345,0.258,0.668,0.55,0.82,0.881l-0.834,0.316
		c-0.175-0.322-0.544-0.597-0.897-0.852L27.698,162.372z"/>
	<path fill="#FFFFFF" d="M26.68,159.456l5.458-1.88l0.301,0.873l-4.538,1.563c0.336,0.269,0.65,0.57,0.791,0.905l-0.842,0.29
		c-0.165-0.327-0.525-0.613-0.87-0.878L26.68,159.456z"/>
	<path fill="#FFFFFF" d="M27.831,153.511c1.842-0.559,3.038-0.17,3.448,1.182c0.412,1.359-0.367,2.347-2.209,2.904
		c-1.834,0.556-3.022,0.165-3.435-1.194C25.226,155.051,25.997,154.066,27.831,153.511z M28.104,154.411
		c-1.431,0.435-1.887,0.979-1.655,1.745s0.917,0.974,2.347,0.54c1.446-0.438,1.9-0.99,1.668-1.758
		C30.232,154.172,29.55,153.974,28.104,154.411z"/>
	<path fill="#FFFFFF" d="M26.667,148.906c1.863-0.469,3.038-0.025,3.382,1.342c0.346,1.376-0.478,2.323-2.341,2.792
		c-1.855,0.468-3.021,0.021-3.368-1.354C23.996,150.319,24.812,149.374,26.667,148.906z M26.896,149.818
		c-1.447,0.364-1.928,0.885-1.733,1.661c0.195,0.775,0.868,1.014,2.315,0.649c1.463-0.368,1.942-0.897,1.747-1.673
		S28.359,149.449,26.896,149.818z"/>
	<path fill="#FFFFFF" d="M25.714,144.254c1.884-0.38,3.038,0.119,3.316,1.502c0.281,1.391-0.588,2.299-2.472,2.679
		c-1.876,0.379-3.021-0.122-3.302-1.513C22.977,145.539,23.838,144.633,25.714,144.254z M25.9,145.176
		c-1.464,0.296-1.97,0.793-1.811,1.578c0.158,0.784,0.819,1.055,2.283,0.759c1.48-0.299,1.984-0.804,1.825-1.589
		C28.039,145.14,27.38,144.877,25.9,145.176z"/>
	<path fill="#FFFFFF" d="M24.979,139.556c1.898-0.291,3.026,0.262,3.24,1.654c0.215,1.402-0.694,2.268-2.593,2.559
		c-1.89,0.29-3.01-0.264-3.225-1.665C22.188,140.711,23.089,139.847,24.979,139.556z M25.122,140.485
		c-1.475,0.227-2.002,0.699-1.881,1.489c0.122,0.791,0.768,1.092,2.243,0.865c1.491-0.229,2.018-0.71,1.896-1.501
		C27.259,140.549,26.613,140.256,25.122,140.485z"/>
	<path fill="#FFFFFF" d="M21.832,137.367l5.736-0.662l0.106,0.917l-4.769,0.551c0.271,0.334,0.512,0.696,0.578,1.055l-0.885,0.102
		c-0.091-0.354-0.381-0.711-0.661-1.045L21.832,137.367z"/>
	<path fill="#FFFFFF" d="M24.151,129.811c1.919-0.11,2.991,0.547,3.072,1.956c0.081,1.417-0.908,2.193-2.828,2.304
		c-1.912,0.109-2.974-0.549-3.056-1.966C21.258,130.695,22.239,129.92,24.151,129.811z M24.205,130.749
		c-1.491,0.086-2.063,0.507-2.017,1.307c0.046,0.799,0.662,1.161,2.153,1.075c1.508-0.087,2.079-0.517,2.033-1.315
		C26.328,131.016,25.712,130.663,24.205,130.749z"/>
	<path fill="#FFFFFF" d="M21.224,127.321l5.778-0.118l0.019,0.925l-4.805,0.098c0.239,0.358,0.445,0.742,0.477,1.105l-0.892,0.018
		c-0.057-0.362-0.313-0.745-0.56-1.104L21.224,127.321z"/>
	<path fill="#FFFFFF" d="M21.239,124.227l5.778,0.096l-0.015,0.925l-4.805-0.08c0.225,0.367,0.417,0.758,0.436,1.122l-0.892-0.015
		c-0.043-0.364-0.285-0.756-0.518-1.124L21.239,124.227z"/>
	<path fill="#FFFFFF" d="M24.315,119.011c1.92,0.089,2.917,0.854,2.851,2.262c-0.065,1.417-1.128,2.086-3.048,1.998
		c-1.912-0.088-2.9-0.853-2.834-2.27C21.349,119.592,22.404,118.922,24.315,119.011z M24.272,119.95
		c-1.492-0.069-2.103,0.291-2.14,1.09c-0.037,0.799,0.538,1.222,2.029,1.291c1.508,0.07,2.119-0.298,2.156-1.097
		S25.78,120.02,24.272,119.95z"/>
	<path fill="#FFFFFF" d="M24.749,114.26c1.913,0.178,2.873,0.987,2.742,2.391c-0.131,1.412-1.224,2.031-3.137,1.853
		c-1.904-0.177-2.856-0.986-2.725-2.398C21.76,114.702,22.845,114.083,24.749,114.26z M24.662,115.196
		c-1.486-0.138-2.113,0.193-2.187,0.989c-0.074,0.796,0.48,1.246,1.966,1.384c1.502,0.139,2.13-0.2,2.204-0.996
		C26.72,115.776,26.165,115.335,24.662,115.196z"/>
	<path fill="#FFFFFF" d="M25.4,109.556c1.902,0.267,2.823,1.12,2.627,2.516c-0.197,1.404-1.317,1.971-3.219,1.705
		c-1.894-0.266-2.807-1.118-2.61-2.522C22.395,109.858,23.506,109.29,25.4,109.556z M25.27,110.486
		c-1.478-0.207-2.119,0.094-2.23,0.886c-0.111,0.792,0.422,1.266,1.899,1.473c1.494,0.209,2.137-0.1,2.248-0.892
		C27.298,111.162,26.764,110.696,25.27,110.486z"/>
	<path fill="#FFFFFF" d="M23.027,106.542l5.682,1.025l-0.164,0.909l-4.725-0.853c0.163,0.398,0.289,0.815,0.249,1.176l-0.877-0.158
		c0.016-0.366-0.159-0.792-0.33-1.191L23.027,106.542z"/>
	<path fill="#FFFFFF" d="M23.646,103.498l5.65,1.196l-0.191,0.904l-4.698-0.995c0.151,0.403,0.264,0.823,0.213,1.184l-0.872-0.185
		c0.026-0.365-0.135-0.796-0.294-1.201L23.646,103.498z"/>
	<path fill="#FFFFFF" d="M28.237,97.082c1.856,0.505,2.663,1.469,2.292,2.831c-0.373,1.37-1.557,1.792-3.413,1.287
		c-1.848-0.502-2.647-1.464-2.274-2.834C25.213,97.003,26.389,96.579,28.237,97.082z M27.99,97.99
		c-1.442-0.393-2.117-0.174-2.327,0.599c-0.21,0.772,0.259,1.311,1.701,1.703c1.458,0.396,2.135,0.17,2.345-0.603
		C29.919,98.917,29.448,98.386,27.99,97.99z"/>
	<path fill="#FFFFFF" d="M26.267,93.776l5.511,1.73l-0.277,0.882l-4.582-1.438c0.111,0.416,0.184,0.845,0.099,1.199l-0.85-0.267
		c0.062-0.361-0.059-0.806-0.178-1.224L26.267,93.776z"/>
	<path fill="#FFFFFF" d="M27.259,90.85l5.458,1.891l-0.303,0.874l-4.538-1.572c0.1,0.419,0.16,0.85,0.064,1.201l-0.842-0.292
		c0.072-0.359-0.035-0.807-0.142-1.228L27.259,90.85z"/>
	<path fill="#FFFFFF" d="M31.845,86.9c1.792,0.701,2.492,1.745,1.978,3.061c-0.517,1.323-1.74,1.616-3.532,0.916
		c-1.784-0.697-2.477-1.739-1.959-3.062C28.846,86.5,30.061,86.203,31.845,86.9z M31.502,87.777
		c-1.392-0.544-2.087-0.399-2.379,0.347c-0.292,0.746,0.118,1.332,1.51,1.875c1.407,0.55,2.105,0.397,2.396-0.348
		C33.322,88.905,32.91,88.327,31.502,87.777z"/>
	<path fill="#FFFFFF" d="M30.227,83.426l5.298,2.307l-0.369,0.848l-4.405-1.918c0.067,0.425,0.094,0.86-0.029,1.203l-0.817-0.356
		c0.1-0.353,0.027-0.808-0.047-1.236L30.227,83.426z"/>
	<path fill="#FFFFFF" d="M35.101,79.854c1.731,0.835,2.349,1.93,1.735,3.201c-0.617,1.278-1.857,1.476-3.589,0.641
		c-1.724-0.832-2.333-1.923-1.717-3.201C32.144,79.224,33.377,79.021,35.101,79.854z M34.692,80.701
		c-1.345-0.649-2.048-0.558-2.396,0.163c-0.348,0.721,0.015,1.335,1.36,1.984c1.36,0.656,2.067,0.558,2.415-0.163
		C36.418,81.964,36.052,81.357,34.692,80.701z"/>
	<path fill="#FFFFFF" d="M37.365,75.662c1.689,0.917,2.252,2.04,1.579,3.279c-0.677,1.247-1.925,1.385-3.614,0.468
		c-1.682-0.913-2.238-2.032-1.561-3.279C34.443,74.891,35.684,74.749,37.365,75.662z M36.917,76.488
		c-1.312-0.712-2.019-0.655-2.4,0.048s-0.049,1.334,1.263,2.047c1.327,0.72,2.037,0.656,2.419-0.047
		C38.58,77.833,38.243,77.208,36.917,76.488z"/>
	<path fill="#FFFFFF" d="M39.801,71.589c1.646,0.992,2.159,2.139,1.431,3.347c-0.732,1.215-1.986,1.297-3.632,0.306
		c-1.639-0.988-2.145-2.13-1.413-3.345C36.915,70.688,38.162,70.602,39.801,71.589z M39.315,72.395
		c-1.279-0.771-1.988-0.745-2.4-0.06c-0.413,0.685-0.109,1.331,1.17,2.101c1.293,0.779,2.006,0.747,2.419,0.062
		C40.917,73.813,40.608,73.174,39.315,72.395z"/>
	<path fill="#FFFFFF" d="M43.619,65.989c1.575,1.103,2.009,2.282,1.2,3.438c-0.813,1.163-2.07,1.16-3.645,0.058
		c-1.568-1.098-1.995-2.272-1.181-3.435C40.801,64.894,42.051,64.892,43.619,65.989z M43.08,66.76
		c-1.224-0.856-1.933-0.879-2.391-0.224c-0.459,0.656-0.199,1.321,1.024,2.177c1.237,0.866,1.951,0.882,2.41,0.226
		C44.581,68.284,44.316,67.625,43.08,66.76z"/>
	<path fill="#FFFFFF" d="M42.853,62.239l4.604,3.482l-0.557,0.736l-3.828-2.895c-0.035,0.429-0.111,0.857-0.31,1.162l-0.71-0.538
		c0.179-0.319,0.216-0.777,0.244-1.211L42.853,62.239z"/>
	<path fill="#FFFFFF" d="M44.786,59.8l4.497,3.621l-0.58,0.72l-3.738-3.011c-0.048,0.428-0.137,0.854-0.345,1.152l-0.694-0.559
		c0.189-0.314,0.24-0.771,0.281-1.204L44.786,59.8z"/>
	<path fill="#FFFFFF" d="M50.42,57.626c1.451,1.259,1.759,2.476,0.835,3.54c-0.929,1.071-2.177,0.937-3.628-0.321
		c-1.444-1.253-1.747-2.465-0.817-3.536C47.734,56.245,48.976,56.373,50.42,57.626z M49.805,58.336
		c-1.127-0.978-1.829-1.074-2.353-0.47s-0.335,1.292,0.792,2.269c1.139,0.989,1.847,1.079,2.371,0.475
		C51.138,60.006,50.944,59.324,49.805,58.336z"/>
	<path fill="#FFFFFF" d="M50.076,53.782l4.219,3.952l-0.632,0.675l-3.508-3.286c-0.08,0.423-0.201,0.842-0.431,1.125l-0.651-0.61
		c0.212-0.299,0.296-0.752,0.37-1.181L50.076,53.782z"/>
	<path fill="#FFFFFF" d="M55.856,52.062c1.351,1.365,1.566,2.602,0.564,3.594c-1.008,0.997-2.242,0.769-3.593-0.596
		c-1.345-1.359-1.555-2.59-0.547-3.587C53.282,50.48,54.511,50.703,55.856,52.062z M55.188,52.723
		c-1.049-1.061-1.743-1.21-2.311-0.647s-0.432,1.263,0.618,2.323c1.061,1.072,1.76,1.216,2.328,0.653S56.249,53.795,55.188,52.723z"
		/>
	<path fill="#FFFFFF" d="M59.388,48.861c1.287,1.429,1.444,2.677,0.395,3.621c-1.055,0.95-2.279,0.664-3.566-0.765
		c-1.281-1.423-1.433-2.665-0.378-3.615C56.888,47.158,58.106,47.438,59.388,48.861z M58.689,49.491
		c-1-1.11-1.686-1.292-2.281-0.757c-0.595,0.536-0.492,1.243,0.508,2.353c1.011,1.123,1.703,1.299,2.298,0.763
		C59.809,51.315,59.7,50.614,58.689,49.491z"/>
	<path fill="#FFFFFF" d="M59.517,45.019l3.696,4.433l-0.709,0.591l-3.073-3.686c-0.13,0.41-0.301,0.81-0.564,1.061l-0.57-0.684
		c0.247-0.27,0.386-0.708,0.512-1.124L59.517,45.019z"/>
	<path fill="#FFFFFF" d="M67.086,42.824c1.145,1.543,1.183,2.798,0.05,3.639c-1.139,0.845-2.33,0.444-3.474-1.099
		c-1.14-1.536-1.173-2.785-0.034-3.63C64.76,40.894,65.946,41.288,67.086,42.824z M66.331,43.384
		c-0.889-1.199-1.554-1.444-2.196-0.968c-0.643,0.477-0.606,1.189,0.283,2.388c0.899,1.212,1.571,1.453,2.213,0.977
		C67.272,45.304,67.23,44.596,66.331,43.384z"/>
	<path fill="#FFFFFF" d="M67.56,39.025l3.258,4.764l-0.762,0.521l-2.709-3.961c-0.169,0.396-0.377,0.777-0.663,1.003l-0.502-0.735
		c0.271-0.246,0.452-0.668,0.616-1.07L67.56,39.025z"/>
	<path fill="#FFFFFF" d="M70.166,37.321l3.119,4.86l-0.777,0.499l-2.593-4.041c-0.181,0.391-0.4,0.767-0.692,0.983l-0.481-0.75
		c0.279-0.237,0.471-0.655,0.647-1.053L70.166,37.321z"/>
	<path fill="#FFFFFF" d="M76.196,37.063c0.974,1.657,0.878,2.909-0.338,3.625c-1.223,0.719-2.364,0.194-3.338-1.463
		c-0.97-1.65-0.87-2.895,0.354-3.614C74.089,34.895,75.226,35.413,76.196,37.063z M75.385,37.539
		c-0.757-1.287-1.392-1.603-2.082-1.197c-0.69,0.405-0.73,1.118,0.026,2.405c0.765,1.301,1.408,1.612,2.097,1.207
		C76.117,39.549,76.15,38.84,75.385,37.539z"/>
	<path fill="#FFFFFF" d="M77.08,33.323l2.734,5.084L79,38.845l-2.273-4.227c-0.21,0.375-0.458,0.733-0.766,0.927L75.54,34.76
		c0.296-0.215,0.521-0.617,0.727-1L77.08,33.323z"/>
	<path fill="#FFFFFF" d="M79.863,31.904l2.584,5.159l-0.825,0.414l-2.149-4.289c-0.221,0.369-0.479,0.719-0.792,0.904l-0.399-0.796
		c0.302-0.207,0.538-0.602,0.755-0.978L79.863,31.904z"/>
	<path fill="#FFFFFF" d="M82.658,30.577l2.436,5.233l-0.837,0.39l-2.025-4.352c-0.231,0.363-0.5,0.706-0.818,0.881l-0.375-0.808
		c0.308-0.198,0.555-0.586,0.783-0.956L82.658,30.577z"/>
	<path fill="#FFFFFF" d="M88.665,31.132c0.743,1.774,0.479,3.003-0.823,3.548c-1.31,0.549-2.371-0.125-3.114-1.9
		c-0.74-1.766-0.473-2.988,0.836-3.536C86.867,28.699,87.925,29.365,88.665,31.132z M87.796,31.495
		c-0.577-1.378-1.165-1.776-1.903-1.467c-0.738,0.309-0.875,1.01-0.297,2.389c0.584,1.394,1.179,1.789,1.917,1.479
		C88.252,33.587,88.38,32.889,87.796,31.495z"/>
	<path fill="#FFFFFF" d="M95.042,28.865c0.623,1.82,0.276,3.029-1.06,3.486c-1.344,0.459-2.357-0.285-2.979-2.105
		c-0.619-1.813-0.271-3.014,1.073-3.473C93.413,26.316,94.423,27.052,95.042,28.865z M94.152,29.169
		c-0.483-1.414-1.042-1.851-1.8-1.592c-0.758,0.259-0.94,0.95-0.458,2.364c0.489,1.43,1.056,1.864,1.814,1.605
		C94.466,31.287,94.641,30.599,94.152,29.169z"/>
	<path fill="#FFFFFF" d="M96.646,25.39l1.656,5.533l-0.885,0.265l-1.376-4.6c-0.282,0.326-0.596,0.626-0.937,0.754l-0.255-0.854
		c0.333-0.151,0.634-0.5,0.913-0.833L96.646,25.39z"/>
	<path fill="#FFFFFF" d="M99.636,24.565l1.496,5.576l-0.892,0.239l-1.244-4.636c-0.291,0.317-0.614,0.609-0.958,0.727l-0.231-0.86
		c0.338-0.142,0.648-0.481,0.937-0.806L99.636,24.565z"/>
	<path fill="#FFFFFF" d="M105.485,26.15c0.423,1.874-0.05,3.037-1.425,3.347c-1.383,0.313-2.31-0.535-2.732-2.408
		c-0.421-1.866,0.053-3.021,1.436-3.333C104.139,23.445,105.064,24.284,105.485,26.15z M104.569,26.357
		c-0.329-1.456-0.837-1.949-1.618-1.773c-0.78,0.176-1.035,0.842-0.707,2.298c0.333,1.472,0.849,1.963,1.629,1.787
		C104.654,28.493,104.901,27.829,104.569,26.357z"/>
	<path fill="#FFFFFF" d="M110.148,25.303c0.338,1.892-0.188,3.032-1.575,3.28c-1.396,0.25-2.284-0.639-2.622-2.531
		c-0.336-1.883,0.19-3.016,1.586-3.265C108.926,22.54,109.812,23.42,110.148,25.303z M109.223,25.469
		c-0.263-1.469-0.749-1.986-1.536-1.845c-0.788,0.141-1.073,0.795-0.811,2.264c0.265,1.485,0.759,2,1.547,1.86
		C109.21,27.607,109.488,26.954,109.223,25.469z"/>
	<path fill="#FFFFFF" d="M114.867,24.679c0.249,1.906-0.329,3.021-1.728,3.204c-1.407,0.184-2.252-0.746-2.501-2.651
		c-0.248-1.897,0.332-3.004,1.738-3.188C113.775,21.861,114.619,22.782,114.867,24.679z M113.935,24.801
		c-0.193-1.48-0.655-2.019-1.448-1.916c-0.793,0.104-1.109,0.744-0.916,2.224c0.195,1.497,0.665,2.034,1.458,1.931
		C113.822,26.937,114.13,26.298,113.935,24.801z"/>
	<path fill="#FFFFFF" d="M119.612,24.274c0.16,1.917-0.47,3.004-1.876,3.122c-1.415,0.118-2.216-0.85-2.376-2.767
		c-0.159-1.908,0.471-2.988,1.886-3.105C118.652,21.406,119.452,22.366,119.612,24.274z M118.674,24.352
		c-0.124-1.488-0.56-2.048-1.358-1.982c-0.798,0.067-1.143,0.692-1.019,2.181c0.125,1.505,0.57,2.064,1.368,1.998
		C118.462,26.482,118.8,25.857,118.674,24.352z"/>
	<path fill="#FFFFFF" d="M122.031,21.298l0.256,5.768l-0.923,0.041l-0.213-4.795c-0.353,0.247-0.731,0.462-1.092,0.502l-0.04-0.89
		c0.36-0.065,0.737-0.33,1.088-0.585L122.031,21.298z"/>
</g>
</svg>
