<?xml version="1.0" encoding="UTF-8"?>
<svg width="557px" height="224px" viewBox="0 0 557 224" version="1.1" xmlns="http://www.w3.org/2000/svg" xmlns:xlink="http://www.w3.org/1999/xlink">
    <!-- Generator: Sketch 49.3 (51167) - http://www.bohemiancoding.com/sketch -->
    <title>Group 4</title>
    <desc>Created with Sketch.</desc>
    <defs>
        <path d="M214,162 C211.752096,170.124112 209.186054,174.301871 206.301873,174.533276 C201.975602,174.880384 74.4598755,175.181305 64.9720345,174.86943 C56.7164472,175.133638 57.2798401,168.504856 57,162.17879 C82.7206269,162.344708 135.05396,162.285111 214,162 Z" id="path-1"></path>
        <filter x="-4.5%" y="-38.5%" width="108.9%" height="207.7%" filterUnits="objectBoundingBox" id="filter-2">
            <feOffset dx="0" dy="2" in="SourceAlpha" result="shadowOffsetOuter1"></feOffset>
            <feGaussianBlur stdDeviation="2" in="shadowOffsetOuter1" result="shadowBlurOuter1"></feGaussianBlur>
            <feColorMatrix values="0 0 0 0 0   0 0 0 0 0   0 0 0 0 0  0 0 0 0.0867300725 0" type="matrix" in="shadowBlurOuter1"></feColorMatrix>
        </filter>
        <path d="M422.840046,162.321405 C424.266111,166.395801 415.801481,173.11266 411.560635,174.365865 C408.733404,175.201335 340.879859,175.211259 208,174.395636 C211.066925,170.641961 213.252682,166.510082 214.55727,162 C272.847272,162.257747 367.960276,162.109719 422.840046,162.321405 Z" id="path-3"></path>
        <filter x="-3.3%" y="-38.5%" width="106.5%" height="207.7%" filterUnits="objectBoundingBox" id="filter-4">
            <feOffset dx="0" dy="2" in="SourceAlpha" result="shadowOffsetOuter1"></feOffset>
            <feGaussianBlur stdDeviation="2" in="shadowOffsetOuter1" result="shadowBlurOuter1"></feGaussianBlur>
            <feComposite in="shadowBlurOuter1" in2="SourceAlpha" operator="out" result="shadowBlurOuter1"></feComposite>
            <feColorMatrix values="0 0 0 0 0   0 0 0 0 0   0 0 0 0 0  0 0 0 0.0843806612 0" type="matrix" in="shadowBlurOuter1"></feColorMatrix>
        </filter>
        <path d="M15.6537702,2.06507644 C21.1337014,1.34442426 90.6222363,0.656065444 224.119375,0 C229.260011,1.92814114 232.215544,4.63520964 232.985975,8.12120549 C233.756407,11.6072013 247.72996,58.480161 274.906635,148.740085 C278.091235,156.703598 277.642327,161.114432 273.559913,161.972586 C269.528089,162.061273 197.884752,161.934776 58.629903,161.593096 C55.1165484,158.348875 52.6808945,155.011394 51.3229412,151.580653 C49.4160363,147.808182 35.4312646,101.310215 9.36862598,12.0867518 C8.07879092,6.12628706 10.173839,2.78572862 15.6537702,2.06507644 Z" id="path-5"></path>
        <filter x="-2.6%" y="-3.1%" width="105.2%" height="108.6%" filterUnits="objectBoundingBox" id="filter-6">
            <feOffset dx="0" dy="2" in="SourceAlpha" result="shadowOffsetOuter1"></feOffset>
            <feGaussianBlur stdDeviation="2" in="shadowOffsetOuter1" result="shadowBlurOuter1"></feGaussianBlur>
            <feColorMatrix values="0 0 0 0 0   0 0 0 0 0   0 0 0 0 0  0 0 0 0.0741055254 0" type="matrix" in="shadowBlurOuter1"></feColorMatrix>
        </filter>
        <rect id="path-7" x="441" y="64" width="96.6838655" height="90.7366511" rx="4"></rect>
        <filter x="-35.2%" y="-28.7%" width="170.3%" height="174.9%" filterUnits="objectBoundingBox" id="filter-8">
            <feOffset dx="0" dy="8" in="SourceAlpha" result="shadowOffsetOuter1"></feOffset>
            <feGaussianBlur stdDeviation="10" in="shadowOffsetOuter1" result="shadowBlurOuter1"></feGaussianBlur>
            <feColorMatrix values="0 0 0 0 0.77254902   0 0 0 0 0.811764706   0 0 0 0 0.870588235  0 0 0 0.5 0" type="matrix" in="shadowBlurOuter1"></feColorMatrix>
        </filter>
        <rect id="path-9" x="0" y="0" width="101" height="81" rx="4"></rect>
        <filter x="-33.7%" y="-32.1%" width="167.3%" height="184.0%" filterUnits="objectBoundingBox" id="filter-10">
            <feOffset dx="0" dy="8" in="SourceAlpha" result="shadowOffsetOuter1"></feOffset>
            <feGaussianBlur stdDeviation="10" in="shadowOffsetOuter1" result="shadowBlurOuter1"></feGaussianBlur>
            <feColorMatrix values="0 0 0 0 0.77254902   0 0 0 0 0.811764706   0 0 0 0 0.870588235  0 0 0 0.5 0" type="matrix" in="shadowBlurOuter1"></feColorMatrix>
        </filter>
        <path d="M27.9370071,35 C20.2398106,35 14,41.2680135 14,49 L28,49 L27.9370071,35 Z" id="path-11"></path>
        <filter x="-50.0%" y="-35.7%" width="200.0%" height="200.0%" filterUnits="objectBoundingBox" id="filter-12">
            <feOffset dx="0" dy="2" in="SourceAlpha" result="shadowOffsetOuter1"></feOffset>
            <feGaussianBlur stdDeviation="2" in="shadowOffsetOuter1" result="shadowBlurOuter1"></feGaussianBlur>
            <feColorMatrix values="0 0 0 0 0.699001384   0 0 0 0 0.722241378   0 0 0 0 0.760974702  0 0 0 1 0" type="matrix" in="shadowBlurOuter1"></feColorMatrix>
        </filter>
    </defs>
    <g id="New-Smartwork-Flow" stroke="none" stroke-width="1" fill="none" fill-rule="evenodd">
        <g id="BƯớc-1" transform="translate(-703.000000, -451.000000)">
            <g id="Group-4" transform="translate(703.000000, 460.000000)">
                <g id="noun_Plant_206520" fill-rule="nonzero">
                    <path d="M79.8129143,140 C79.1832524,140 78.6601122,139.506874 78.6317064,138.87218 C78.6080349,138.35074 76.1982763,86.5347117 70.0294835,59.4434302 C69.8850874,58.8063769 70.2851357,58.1764019 70.9218991,58.0301156 C71.568131,57.8838293 72.1954257,58.2849369 72.3398219,58.9196308 C78.5535905,86.2161851 80.9728177,138.242205 80.9988564,138.763645 C81.0272622,139.412495 80.5230593,139.966968 79.8697259,139.992922 C79.8484215,140 79.8294843,140 79.8129143,140 Z" id="Shape" fill="#F5A623"></path>
                    <path d="M76.8247987,139 C76.2287243,139 75.7174669,138.552642 75.6538543,137.947533 C75.6043777,137.467212 70.3598663,89.6588191 51.3114049,68.9744197 C50.8708282,68.4964535 50.9014565,67.7500727 51.3797296,67.3121333 C51.8580026,66.8694848 52.6048625,66.902448 53.0430832,67.3804142 C72.6216502,88.6393148 77.7837008,135.706036 77.993387,137.700309 C78.0617117,138.3478 77.5928628,138.92701 76.9449559,138.995291 C76.9072595,138.997645 76.8648511,139 76.8247987,139 Z" id="Shape" fill="#F5A623"></path>
                    <path d="M89.0191841,140 C88.4424058,140 87.956581,139.522781 87.9144318,138.89909 C87.7768923,136.798855 84.6467609,87.1941006 90.820507,62.8724858 C90.9780119,62.2440691 91.5836291,61.875524 92.1803728,62.0385343 C92.7726797,62.2086321 93.1209651,62.858311 92.9612419,63.4867276 C86.8873227,87.4232601 90.0950974,138.223424 90.1305915,138.736079 C90.1727407,139.385758 89.711318,139.950388 89.0990457,139.995275 C89.0702068,140 89.0435862,140 89.0191841,140 Z" id="Shape" fill="#F5A623"></path>
                    <path d="M90.1796958,140 C89.5545574,140 89.0394621,139.507944 89.011366,138.874627 C88.9949766,138.566209 87.9015699,107.745585 112.120413,89.2404967 C112.635508,88.8473224 113.37069,88.9462046 113.761694,89.4641587 C114.152698,89.9821128 114.05202,90.7213746 113.536925,91.1145488 C90.3154936,108.856832 91.3363188,138.472035 91.3456841,138.768682 C91.3761216,139.418479 90.8750744,139.969394 90.2288639,139.995291 C90.2148159,140 90.1960852,140 90.1796958,140 Z" id="Shape" fill="#F5A623"></path>
                    <path d="M114.837349,102 C113.282711,102 111.476865,101.563383 109.476689,100.704387 C106.58781,99.4609787 105.379173,97.3846762 104.981034,96.5185615 C104.298509,95.9348239 103.13964,94.4398861 102.390759,90.7191521 C101.051779,84.0939675 103.52593,81.6735921 104.241632,81.1254482 L112.588337,72.1415841 C112.979366,71.7239506 113.614493,71.6456444 114.095578,71.9517507 C114.579033,72.2602299 114.770993,72.8724425 114.550594,73.401603 C113.896509,75.0009492 112.363199,80.0267876 113.891769,82.0651234 C114.005523,82.2169901 114.097948,82.3166526 114.166674,82.3830943 C115.335024,80.9973107 116.200028,73.1477009 116.242686,70.1127399 C116.16685,69.7188357 116.313782,69.538494 116.598168,69.2608627 C117.240404,68.6344126 122.975505,63.1150074 126.741238,62.4078781 C127.182035,62.3271989 127.634682,62.5004219 127.904848,62.8587323 C128.175014,63.2170428 128.220041,63.698745 128.018602,64.1021409 C126.290962,67.5689728 125.160531,71.3846235 125.646356,72.1107361 C128.118137,71.6978486 129.367061,65.8486079 129.535323,61.809903 C129.556652,61.3543029 129.833927,60.9485341 130.255765,60.7681924 C130.613616,60.6163257 139.126212,57 144.92056,57 C146.155266,57 147.21697,57.1661042 148.070126,57.4959397 C148.288154,57.5813647 148.477744,57.7284856 148.612827,57.9183189 L148.75976,58.1271356 C148.882993,58.3003586 148.95409,58.5020565 148.973049,58.7132462 C149.492052,64.8258806 142.346874,76.6809745 142.04353,77.1840329 C141.778104,77.6159038 141.268581,77.8270934 140.780386,77.7274309 C140.761427,77.7226851 138.761251,77.2979329 136.550157,77.2979329 C134.464666,77.2979329 131.850692,77.6657351 131.236894,79.4169479 C131.099441,79.8108521 131.146839,79.9508543 131.146839,79.9508543 C131.149208,79.9508543 131.417005,80.216621 132.580614,80.216621 C134.929161,80.216621 138.277797,79.1630458 138.310975,79.1511812 C138.742292,79.013552 139.216268,79.1369437 139.529091,79.4644062 C139.841915,79.7942417 139.93908,80.273571 139.777928,80.7006961 C138.292016,84.653976 131.812774,89.8886311 131.535498,90.1093124 C131.165798,90.405927 130.658644,90.4510124 130.239176,90.2327041 C129.02106,89.5872706 126.978226,89.2004851 124.771871,89.2004851 C121.53462,89.2004851 119.849638,90.0096499 119.690856,90.3466041 C120.619848,91.7561169 122.603434,92.0218836 124.124895,92.0218836 C125.74826,92.0218836 127.134638,91.7157773 127.146487,91.7110314 C127.708148,91.5900127 128.255589,91.867644 128.487837,92.3801941 C128.717715,92.8951171 128.556564,93.5002109 128.101547,93.8300464 L118.368465,100.879983 C118.012984,101.216937 116.946539,102 114.837349,102 Z" id="Shape" fill="#F5A623"></path>
                    <path d="M108.09202,204 L57.4541314,204 C56.8581707,204 56.3560621,203.549827 56.2880193,202.950385 L49.0074444,138.319719 C48.9699035,137.983273 49.0754871,137.649197 49.2983858,137.395679 C49.5212845,137.14216 49.8380352,137 50.1735564,137 L116.827302,137 C117.167516,137 117.488959,137.146899 117.711858,137.405156 C117.934757,137.663413 118.035648,138.006967 117.988722,138.343412 L109.25344,202.974079 C109.176012,203.564043 108.678596,204 108.09202,204 Z" id="Shape" fill="#5694ED"></path>
                    <path d="M61.2900494,63 C56.6318967,63 55.1173542,61.3197678 54.7153461,60.6887945 L46.2170804,50.8909845 C45.8548056,50.475062 45.8290957,49.8582679 46.1539744,49.4139871 C46.4788531,48.9697063 47.0678419,48.809009 47.5680148,49.0335126 C47.6007364,49.0476917 50.7630448,50.4467037 53.8061532,50.4467037 C55.2575897,50.4467037 56.4215435,50.1300354 57.2676305,49.5037885 C57.5130425,49.3218225 57.5597876,49.2131154 57.5597876,49.2131154 C57.281654,48.3198274 52.4014619,46.3371061 47.3833715,46.3371061 C46.4391198,46.3371061 45.6047191,46.4150916 44.9012048,46.5686993 C44.4688123,46.6703167 44.01071,46.4954402 43.7325764,46.1385977 C43.1505995,45.3847382 38.0436934,38.6307245 37.9455286,34.1619211 C37.9361796,33.7389091 38.1512072,33.3442554 38.5088075,33.1268413 C38.8664078,32.9094273 39.3128238,32.8976113 39.6774359,33.1032094 C41.0423938,33.8665216 45.0951971,35.8421534 47.4020696,35.8421534 C48.5426509,35.8421534 48.5449881,35.4333205 48.5473254,34.9559549 C48.5660235,32.0114129 41.362598,30.91489 37.8707364,30.8439941 C37.3425163,30.8345414 36.8867513,30.4658828 36.7582021,29.9483429 C36.610955,29.3480912 33.1658384,15.131105 36.3374959,8.87336238 C36.4239744,8.70321228 36.5501863,8.55433094 36.7067825,8.44326074 L36.9732298,8.25420507 C37.1345005,8.14077167 37.3191438,8.0698758 37.5131361,8.04860703 C44.3823338,7.29474756 56.3841474,15.554117 56.8679596,15.892054 C57.3026894,16.1945431 57.4826581,16.7569837 57.3050266,17.2603444 C56.1363982,20.5877242 54.6078323,27.7883819 57.3400855,28.8092825 C57.709372,28.9510743 57.9243997,29.0361493 58.2025332,28.7076651 C59.2846831,27.4409921 59.1771693,22.7169636 58.7541258,19.7676952 C58.6933571,19.3494096 58.8593024,18.9311239 59.1888556,18.6688092 C59.5160715,18.4064944 59.9578131,18.3403249 60.348135,18.5010223 C64.5224756,20.2025233 69.1899774,27.8758202 69.386307,28.2019412 C69.6176954,28.5824157 69.6153581,29.0621445 69.3816325,29.4402558 C68.2246904,32.5265896 65.8406884,41.3838476 66.8457088,42.6836053 C66.8340226,42.6339782 67.1238424,42.5867143 67.7221801,42.1920606 C70.4988412,40.362947 70.8237199,34.8259791 70.7138688,32.845621 C70.6834845,32.2926332 71.0364103,31.7916357 71.5646303,31.6403911 C72.0951876,31.4915098 72.6514547,31.7325558 72.9108902,32.2217373 L75.4351276,37.0024825 C75.5893865,37.297882 75.6150963,37.6429086 75.5052453,37.9572136 C75.5005708,37.9690296 75.1149234,39.0726421 74.6685073,41.1215329 C74.4534797,42.1188015 74.1917069,42.9317409 73.9533068,43.6714212 C73.782687,44.2031403 73.6237535,44.6899586 73.5115652,45.1885929 C73.172663,46.6963119 73.0464511,48.1733093 73.1656512,49.2391106 C73.2030473,49.5794108 73.5980437,50.8933477 73.9088989,51.4605147 C74.8414643,53.1691053 75.3439745,53.9796815 75.594061,54.3861511 C75.8745318,54.8398847 76.2975753,55.5228483 75.6875513,56.267255 C73.8831891,58.4839327 72.4831722,59.2637874 71.8006932,59.5331917 C71.0948417,60.2421504 68.8884713,62.1350703 64.9946015,62.7022373 C63.6623651,62.9007458 62.41427,63 61.2900494,63 Z" id="Shape" fill="#F5A623"></path>
                    <path d="M101.888658,70 C101.531378,70 101.159806,69.9928586 100.778707,69.9785758 C96.1435912,69.7976603 93.0447802,66.2912331 91.9419751,64.8153438 C90.4580709,64.8796164 87.0210346,64.5011222 82.9385118,60.4614704 C75.1331285,52.7487588 77.2315547,46.3762497 77.3244476,46.1096375 L81.4617533,32.9289941 C81.6213385,32.4195742 82.0310199,32.0839284 82.6383964,32.0958308 C83.171935,32.112494 83.6316356,32.4862273 83.7554928,33.005169 C83.7769296,33.0932463 85.9277569,41.729579 90.8129694,44.0362511 C91.5227662,44.3718969 91.9229201,44.4575937 92.1110877,44.4766374 C92.4778955,42.2580426 86.4446224,31.9649051 84.2437758,28.8822009 C83.8698225,28.5346528 83.9031686,28.1442563 84.1151549,27.6800653 C84.277122,27.3253758 88.1381309,18.938992 92.2778185,16.4418826 C92.6255713,16.2276406 93.066217,16.2133578 93.4377885,16.4014147 C93.8045963,16.5894715 94.0475469,16.9536829 94.080893,17.3655036 C94.4524645,22.0145549 95.948278,27.1944501 97.5012563,27.1944501 C97.6822783,27.1944501 97.8990284,27.1254166 98.141979,26.98973 C98.6040615,26.7326396 98.8875038,26.3398626 99.0375616,25.7590288 C99.8164326,22.7001292 96.5175446,16.5251989 95.1836982,14.4042032 C94.9193108,13.9852411 94.9407476,13.4472557 95.240863,13.0520982 C95.6433988,12.5188737 105.208983,0 113.474067,0 C113.659853,0 113.89804,0.0428483983 114.062389,0.126164728 L114.436342,0.314221587 C114.584018,0.388016051 114.710257,0.490376114 114.815059,0.614160375 C120.572035,7.50323063 120.421978,23.4404543 120.41245,24.1165068 C120.405305,24.6592532 120.031351,25.1282051 119.502576,25.2567503 C117.447024,25.7590288 111.761503,27.6729239 110.182325,30.4533088 C109.760734,31.193634 109.674987,31.9339591 109.917937,32.7218935 C110.263308,33.8549956 110.787319,33.8549956 111.06838,33.8549956 C113.047713,33.8549956 116.691971,30.7103992 118.523628,28.7274706 C118.816598,28.4108685 119.257244,28.2728015 119.676453,28.3799225 C120.098044,28.4799021 120.426741,28.801265 120.543453,29.2178467 C121.996393,34.433449 119.526395,44.6170849 119.419211,45.0479494 C119.278681,45.6264028 118.768961,46.0144188 118.135384,45.9477658 C117.747139,45.9049174 117.33984,45.8858736 116.920631,45.8858736 C111.418514,45.8858736 105.070835,48.918588 104.649244,50.6134802 C104.582552,50.882473 105.063689,51.1847922 105.359041,51.3395225 C106.345134,51.8632252 107.486049,52.1298374 108.74844,52.1298374 C112.638031,52.1298374 116.432348,49.6493913 116.468076,49.6255866 C116.89443,49.3423111 117.454169,49.3613548 117.863851,49.6827178 C118.266387,50.0017003 118.421208,50.5420662 118.24495,51.025301 L113.147751,64.9914983 C113.054858,65.2319255 111.027888,70 101.888658,70 Z" id="Shape" fill="#FDF5E6"></path>
                    <path d="M44.4347436,77 C43.5829166,77 43.0276868,76.8036262 42.7476991,76.6711331 L30.2835007,72.670313 C29.7543714,72.4999646 29.4150642,71.9841877 29.4672653,71.4329216 C29.5194664,70.8816554 29.9513119,70.4392229 30.5041689,70.3706104 C32.4783195,70.1269176 37.8882515,68.8232796 39.1932789,65.730984 C39.2929355,65.499121 39.3000539,65.3808235 39.3000539,65.3406024 C39.2692078,65.3453343 38.9892201,65.1868157 38.1279019,65.1868157 C35.2117588,65.1868157 29.5574308,67.1718471 26.9094115,69.6395321 C26.5795955,69.9494714 26.1002945,70.0441094 25.6731946,69.8784929 C24.7762849,69.5330644 16.8417181,66.3887179 14.4547042,62.5961013 C14.2292904,62.238843 14.212681,61.7869467 14.4119942,61.4131267 C14.6113075,61.0393068 14.9956974,60.8003459 15.4180518,60.7861502 C19.131448,60.653657 23.5566774,59.7498644 24.2305461,58.5195709 C24.2756289,58.4367626 24.3776583,58.2474867 24.0905523,57.7624671 C23.9410673,57.5093106 23.4878669,56.742743 21.6916746,56.742743 C18.0375977,56.742743 12.7273225,59.7545963 12.6727486,59.7853537 C12.3097137,59.9982891 11.8541405,59.9959232 11.48636,59.7829877 C11.0379051,59.5227333 0.486165092,53.3239464 0.00211855104,46.1125333 C-0.00974533476,45.9114276 0.0282190998,45.707956 0.116011855,45.5257779 L0.256005707,45.2324002 C0.336680131,45.0620519 0.455318988,44.915363 0.60480395,44.7994315 C6.16422083,40.5643825 20.7686642,40.0202141 21.3879591,40.0012865 C21.9858989,39.9752611 22.431981,40.3467151 22.5743477,40.8766877 C23.1366959,42.961089 25.2959231,48.5139717 28.5774739,47.9153866 C29.1327037,47.8112848 29.2845615,47.6574981 29.2916798,47.6314727 C29.4886203,46.8956625 27.5500614,44.401952 25.3054142,42.4997289 C24.9518704,42.2016193 24.807131,41.7236976 24.9305154,41.2788991 C25.0538998,40.8341007 25.4287986,40.5028678 25.8867446,40.4318893 C30.3262106,39.7126407 38.4482269,43.9003708 38.7638062,44.0659873 C39.0983678,44.2410675 39.3261544,44.5628366 39.3831011,44.9271928 C40.0403603,48.1661772 42.4653386,54.8973027 43.749011,55.1055062 C43.7442655,55.1007743 44.0598448,54.9611833 44.5249092,54.0124377 C46.0055221,50.9863886 43.4286861,46.0746781 42.3111081,44.4350753 C41.9979015,43.9760812 42.045357,43.3609344 42.4297469,42.9563571 C42.8117641,42.5517798 43.4215678,42.4689716 43.9032416,42.7552514 L55.0956314,49.4579855 C56.0471151,49.7986821 59.359512,51.5518505 58.9680037,59.4659505 C58.7425899,64.0464282 57.6084024,66.0598509 57.0294448,66.800393 C56.7779304,67.7775301 55.8288196,70.5433247 52.7370909,73.0535967 C48.722352,76.3115088 46.0055221,77 44.4347436,77 Z" id="Shape" fill="#FDF5E6"></path>
                </g>
                <g id="Group-2" transform="translate(300.000000, 116.500000) scale(-1, 1) translate(-300.000000, -116.500000) translate(88.000000, 29.000000)">
                    <g id="Path-16">
                        <use fill="black" fill-opacity="1" filter="url(#filter-2)" xlink:href="#path-1"></use>
                        <use fill="#5694ED" fill-rule="evenodd" xlink:href="#path-1"></use>
                    </g>
                    <g id="Path-17">
                        <use fill="black" fill-opacity="1" filter="url(#filter-4)" xlink:href="#path-3"></use>
                        <use fill-opacity="0.563179348" fill="#5593EC" fill-rule="evenodd" xlink:href="#path-3"></use>
                    </g>
                    <path d="M18.3628853,3.0246618 C19.6146398,2.00923727 7.85518367,4.56901242 9.12750862,9.54593594 C9.97572525,12.863885 24.1846343,59.555323 51.7542356,149.62025 C55.2840082,155.920871 57.6342502,159.181296 58.8049617,159.401523 C60.5610289,159.731865 50.0164233,164.417819 44.922926,156.011649 C41.5272611,150.407536 26.8862858,103.783313 1,16.1389793 C0.3998147,6.83262731 6.18744315,2.46118814 18.3628853,3.0246618 Z" id="Path-18" fill="#5694ED"></path>
                    <g id="Path-19">
                        <use fill="black" fill-opacity="1" filter="url(#filter-6)" xlink:href="#path-5"></use>
                        <use fill="#FFFFFF" fill-rule="evenodd" xlink:href="#path-5"></use>
                    </g>
                    <polygon id="Path-20" fill="#5694ED" opacity="0.494252232" points="23 16.7382407 220.24463 16 259 146.064836 64.1389264 148"></polygon>
                    <path d="M27.7462121,30.5 L223.253788,29.5" id="Path-33" stroke="#FFFFFF"></path>
                    <polygon id="Path-34" fill="#FFFFFF" points="102 70 103.971223 77 157 76.7567276 155.097162 70"></polygon>
                    <polygon id="Path-34-Copy" fill="#FFFFFF" points="138 81 139.971223 88 193 87.7567276 191.097162 81"></polygon>
                </g>
                <g id="Form-Copy">
                    <use fill="black" fill-opacity="1" filter="url(#filter-8)" xlink:href="#path-7"></use>
                    <use fill="#F5F6FA" fill-rule="evenodd" xlink:href="#path-7"></use>
                </g>
                <path d="M443,68.0051205 C443,66.897723 443.890863,66 445.007665,66 L534.016656,66 C535.125459,66 536.024321,66.8946218 536.024321,68.0051205 L536.024321,76.9321266 L443,76.9321266 L443,68.0051205 Z" id="Substrate-Copy" fill="#FAD392"></path>
                <ellipse id="3" fill="#FFFFFF" cx="456.641056" cy="71.639819" rx="1.64105571" ry="1.639819"></ellipse>
                <ellipse id="2" fill="#FFFFFF" cx="451.641056" cy="71.639819" rx="1.64105571" ry="1.639819"></ellipse>
                <ellipse id="1" fill="#FFFFFF" cx="447.641056" cy="71.639819" rx="1.64105571" ry="1.639819"></ellipse>
                <g id="Rows-Copy" transform="translate(452.000000, 82.000000)">
                    <path d="M10.8941819,44.9036896 L19.0648184,44.9036896 L19.0648184,46.5465075 L10.8941819,46.5465075 L10.8941819,44.9036896 Z M20.6989457,44.9036896 L31.5931276,44.9036896 L31.5931276,46.5465075 L20.6989457,46.5465075 L20.6989457,44.9036896 Z M33.2272549,44.9036896 L41.3978914,44.9036896 L41.3978914,46.5465075 L33.2272549,46.5465075 L33.2272549,44.9036896 Z" id="8" fill="#7E8FA4"></path>
                    <rect id="7" fill="#C5CFDE" x="10.8941819" y="41.0704478" width="29.9590004" height="1.64281791"></rect>
                    <path d="M10.8941819,32.3087523 L19.0648184,32.3087523 L19.0648184,33.9515702 L10.8941819,33.9515702 L10.8941819,32.3087523 Z M20.6989457,32.3087523 L28.8695822,32.3087523 L28.8695822,33.9515702 L20.6989457,33.9515702 L20.6989457,32.3087523 Z M30.5037095,32.3087523 L46.8449824,32.3087523 L46.8449824,33.9515702 L30.5037095,33.9515702 L30.5037095,32.3087523 Z" id="6" fill="#7E8FA4"></path>
                    <rect id="5" fill="#C5CFDE" x="10.8941819" y="28.4755105" width="13.6177274" height="1.64281791"></rect>
                    <path d="M10.8941819,18.618603 L32.6825458,18.618603 L32.6825458,20.2614209 L10.8941819,20.2614209 L10.8941819,18.618603 Z M34.3166731,18.618603 L39.7637641,18.618603 L39.7637641,20.2614209 L34.3166731,20.2614209 L34.3166731,18.618603 Z" id="4" fill="#7E8FA4"></path>
                    <rect id="3" fill="#C5CFDE" x="10.8941819" y="14.7853612" width="24.5119094" height="1.64281791"></rect>
                    <rect id="2" fill="#7E8FA4" x="10.8941819" y="5.47605971" width="35.4060913" height="1.64281791"></rect>
                    <rect id="1" fill="#C5CFDE" x="10.8941819" y="1.64281791" width="24.5119094" height="1.64281791"></rect>
                    <path d="M7.97605451,0.55852928 L7.24309878,0.0744109356 C7.04034025,-0.0591389526 6.76277364,-0.00786533483 6.62705624,0.187689859 L3.03422416,5.3392973 L1.38313202,3.73391635 C1.21062376,3.56618405 0.929378056,3.56618405 0.756869791,3.73391635 L0.129381198,4.34403266 C-0.0431270662,4.51176496 -0.0431270662,4.78482678 0.129381198,4.95414896 L2.66835947,7.42283454 C2.81061747,7.56115407 3.03422416,7.6664836 3.23534754,7.6664836 C3.43647092,7.6664836 3.63922944,7.54406287 3.7700414,7.35923936 L8.09419406,1.15632402 C8.23154661,0.960768824 8.17881304,0.692079168 7.97605451,0.55852928 Z" id="Fill-1" fill="#F8C433"></path>
                    <path d="M7.97605451,13.7010726 L7.24309878,13.2169542 C7.04034025,13.0834044 6.76277364,13.134678 6.62705624,13.3302332 L3.03422416,18.4818406 L1.38313202,16.8764597 C1.21062376,16.7087274 0.929378056,16.7087274 0.756869791,16.8764597 L0.129381198,17.486576 C-0.0431270662,17.6543083 -0.0431270662,17.9273701 0.129381198,18.0966923 L2.66835947,20.5653779 C2.81061747,20.7036974 3.03422416,20.8090269 3.23534754,20.8090269 C3.43647092,20.8090269 3.63922944,20.6866062 3.7700414,20.5017827 L8.09419406,14.2988673 C8.23154661,14.1033121 8.17881304,13.8346225 7.97605451,13.7010726 Z" id="Fill-1-Copy" fill="#F8C433"></path>
                    <path d="M7.97605451,26.8436159 L7.24309878,26.3594975 C7.04034025,26.2259477 6.76277364,26.2772213 6.62705624,26.4727765 L3.03422416,31.6243839 L1.38313202,30.019003 C1.21062376,29.8512707 0.929378056,29.8512707 0.756869791,30.019003 L0.129381198,30.6291193 C-0.0431270662,30.7968516 -0.0431270662,31.0699134 0.129381198,31.2392356 L2.66835947,33.7079212 C2.81061747,33.8462407 3.03422416,33.9515702 3.23534754,33.9515702 C3.43647092,33.9515702 3.63922944,33.8291495 3.7700414,33.644326 L8.09419406,27.4414106 C8.23154661,27.2458554 8.17881304,26.9771658 7.97605451,26.8436159 Z" id="Fill-1-Copy-2" fill="#F8C433"></path>
                    <path d="M7.97605451,39.9861592 L7.24309878,39.5020409 C7.04034025,39.368491 6.76277364,39.4197646 6.62705624,39.6153198 L3.03422416,44.7669272 L1.38313202,43.1615463 C1.21062376,42.993814 0.929378056,42.993814 0.756869791,43.1615463 L0.129381198,43.7716626 C-0.0431270662,43.9393949 -0.0431270662,44.2124567 0.129381198,44.3817789 L2.66835947,46.8504645 C2.81061747,46.988784 3.03422416,47.0941135 3.23534754,47.0941135 C3.43647092,47.0941135 3.63922944,46.9716928 3.7700414,46.7868693 L8.09419406,40.5839539 C8.23154661,40.3883987 8.17881304,40.1197091 7.97605451,39.9861592 Z" id="Fill-1-Copy-3" fill="#F8C433"></path>
                    <path d="M10.8941819,58.0462329 L19.0648184,58.0462329 L19.0648184,59.6890509 L10.8941819,59.6890509 L10.8941819,58.0462329 Z M20.6989457,58.0462329 L47.9344006,58.0462329 L47.9344006,59.6890509 L20.6989457,59.6890509 L20.6989457,58.0462329 Z" id="8-copy" fill="#7E8FA4"></path>
                    <rect id="7-copy" fill="#C5CFDE" x="10.8941819" y="54.2129911" width="13.6177274" height="1.64281791"></rect>
                    <path d="M7.97605451,53.1287025 L7.24309878,52.6445842 C7.04034025,52.5110343 6.76277364,52.5623079 6.62705624,52.7578631 L3.03422416,57.9094705 L1.38313202,56.3040896 C1.21062376,56.1363573 0.929378056,56.1363573 0.756869791,56.3040896 L0.129381198,56.9142059 C-0.0431270662,57.0819382 -0.0431270662,57.355 0.129381198,57.5243222 L2.66835947,59.9930078 C2.81061747,60.1313273 3.03422416,60.2366568 3.23534754,60.2366568 C3.43647092,60.2366568 3.63922944,60.1142361 3.7700414,59.9294126 L8.09419406,53.7264972 C8.23154661,53.5309421 8.17881304,53.2622524 7.97605451,53.1287025 Z" id="Fill-1-Copy-4" fill="#F8C433"></path>
                </g>
                <g id="Group" transform="translate(231.000000, 3.000000)">
                    <g id="Form-Copy">
                        <use fill="black" fill-opacity="1" filter="url(#filter-10)" xlink:href="#path-9"></use>
                        <use fill="#F5F6FA" fill-rule="evenodd" xlink:href="#path-9"></use>
                    </g>
                    <path d="M2,3.99961498 C2,2.89525812 2.89832251,2 4.00371738,2 L96.9962826,2 C98.1029052,2 99,2.88743329 99,3.99961498 L99,12 L2,12 L2,3.99961498 Z" id="Substrate-Copy" fill="#F9D293"></path>
                    <circle id="3" fill="#FFFFFF" cx="16.5" cy="5.5" r="1.5"></circle>
                    <circle id="2" fill="#FFFFFF" cx="12.5" cy="5.5" r="1.5"></circle>
                    <circle id="1" fill="#FFFFFF" cx="8.5" cy="5.5" r="1.5"></circle>
                    <rect id="Rectangle-8" fill="#E0E4EC" x="62" y="45" width="5" height="23"></rect>
                    <rect id="Rectangle-8-Copy" fill="#F5A623" x="69" y="32" width="5" height="36"></rect>
                    <rect id="Rectangle-8-Copy-2" fill="#A4B6D2" x="76" y="50" width="5" height="18"></rect>
                    <circle id="Oval-4" fill="#D9DFE9" cx="27.5" cy="48.5" r="13.5"></circle>
                    <g id="Oval-4-Copy">
                        <use fill="black" fill-opacity="1" filter="url(#filter-12)" xlink:href="#path-11"></use>
                        <use fill="#F5A623" fill-rule="evenodd" xlink:href="#path-11"></use>
                    </g>
                    <rect id="Rectangle-8-Copy-3" fill="#F5A623" x="82" y="20" width="5" height="48"></rect>
                </g>
                <rect id="Rectangle-13" fill="#D9DFE9" transform="translate(280.500000, 209.500000) scale(1, -1) translate(-280.500000, -209.500000) " x="21" y="204" width="519" height="11" rx="5.5"></rect>
            </g>
        </g>
    </g>
</svg>