<?xml version="1.0"?>
<svg xmlns="http://www.w3.org/2000/svg" xmlns:xlink="http://www.w3.org/1999/xlink" version="1.1" id="Capa_1" x="0px" y="0px" viewBox="0 0 512 512" style="enable-background:new 0 0 512 512;" xml:space="preserve" width="512px" height="512px" class=""><g transform="matrix(0.696413 0 0 0.696413 77.7182 77.7182)"><g>
	<path d="M366.081,0H145.919C115.637,0,91,24.637,91,54.919v402.163C91,487.364,115.637,512,145.919,512h220.162   C396.363,512,421,487.364,421,457.082V54.919C421,24.637,396.363,0,366.081,0z M301.915,30v15.792c0,2.187-1.779,3.965-3.966,3.965   h-83.898c-2.187,0-3.966-1.779-3.966-3.965V30H301.915z M391,457.082c0,13.74-11.179,24.918-24.919,24.918H145.919   C132.179,482,121,470.822,121,457.082V54.919C121,41.179,132.179,30,145.919,30h34.166v15.792   c0,18.729,15.237,33.965,33.966,33.965h83.898c18.729,0,33.966-15.237,33.966-33.965V30h34.166C379.821,30,391,41.179,391,54.919   V457.082z" data-original="#000000" class="active-path" data-old_color="#000000" fill="#48A963"/>
	<path d="M312.362,431.676H199.638c-8.284,0-15,6.716-15,15s6.716,15,15,15h112.725c8.284,0,15-6.716,15-15   S320.646,431.676,312.362,431.676z" data-original="#000000" class="active-path" data-old_color="#000000" fill="#48A963"/>
	<path d="M228.943,195.38c8.284,0,15-6.716,15-15v-13.343c0-8.284-6.716-15-15-15s-15,6.716-15,15v13.343   C213.943,188.664,220.659,195.38,228.943,195.38z" data-original="#000000" class="active-path" data-old_color="#000000" fill="#48A963"/>
	<path d="M283.057,195.38c8.284,0,15-6.716,15-15v-13.343c0-8.284-6.716-15-15-15s-15,6.716-15,15v13.343   C268.057,188.664,274.772,195.38,283.057,195.38z" data-original="#000000" class="active-path" data-old_color="#000000" fill="#48A963"/>
	<path d="M241,223.749c0,8.284,6.716,15,15,15s15-6.716,15-15v-13.342c0-8.284-6.716-15-15-15s-15,6.716-15,15V223.749z" data-original="#000000" class="active-path" data-old_color="#000000" fill="#48A963"/>
	<path d="M200.533,238.749c8.284,0,15-6.716,15-15v-13.342c0-8.284-6.716-15-15-15s-15,6.716-15,15v13.342   C185.533,232.033,192.249,238.749,200.533,238.749z" data-original="#000000" class="active-path" data-old_color="#000000" fill="#48A963"/>
	<path d="M296.467,223.749c0,8.284,6.716,15,15,15s15-6.716,15-15v-13.342c0-8.284-6.716-15-15-15s-15,6.716-15,15V223.749z" data-original="#000000" class="active-path" data-old_color="#000000" fill="#48A963"/>
	<path d="M205.971,401.194h100.059c11.517,0,20.886-9.369,20.886-20.885v-46.207c0-11.516-9.369-20.885-20.886-20.885H205.971   c-11.517,0-20.886,9.369-20.886,20.885v46.207C185.085,391.825,194.454,401.194,205.971,401.194z M215.085,343.217h81.83v27.978   h-81.83V343.217z" data-original="#000000" class="active-path" data-old_color="#000000" fill="#48A963"/>
</g></g> </svg>
